<svg width="473" height="473" viewBox="0 0 473 473" fill="none" xmlns="http://www.w3.org/2000/svg">
<g clip-path="url(#clip0)">
<path fill-rule="evenodd" clip-rule="evenodd" d="M508.821 52.2678H-26.9894V427.22H508.821V52.2678Z"/>
<path fill-rule="evenodd" clip-rule="evenodd" d="M259.805 138.993L31.7518 270.661L203.736 369.954L431.789 238.286L259.805 138.993Z" fill="#DBDFE1"/>
<path fill-rule="evenodd" clip-rule="evenodd" d="M257.934 137.88L55.0999 254.983V261.887L257.934 144.784V137.88Z" fill="#006372"/>
<path fill-rule="evenodd" clip-rule="evenodd" d="M44.0833 266.615L256.492 143.966L417.409 236.853L419.938 235.395V238.311L217.163 355.397L187.029 338H158.464L39.4474 269.296V266.354L44.0833 266.599V266.615ZM159.079 325.146C160.995 324.174 163.113 323.667 165.262 323.667C167.41 323.667 169.528 324.174 171.444 325.146C174.816 327.11 174.816 330.313 171.444 332.285C169.527 333.253 167.41 333.758 165.262 333.758C163.114 333.758 160.996 333.253 159.079 332.285C155.708 330.313 155.708 327.11 159.079 325.146ZM70.8789 274.218C72.796 273.25 74.9137 272.746 77.0615 272.746C79.2092 272.746 81.327 273.25 83.2441 274.218C86.6157 276.191 86.6157 279.385 83.2441 281.358C81.3282 282.33 79.21 282.836 77.0615 282.836C74.913 282.836 72.7948 282.33 70.8789 281.358C67.5073 279.385 67.5073 276.191 70.8789 274.218ZM349.202 251.578C351.119 250.61 353.237 250.105 355.385 250.105C357.532 250.105 359.65 250.61 361.567 251.578C364.981 253.551 364.981 256.754 361.567 258.718C359.651 259.69 357.533 260.196 355.385 260.196C353.236 260.196 351.118 259.69 349.202 258.718C345.83 256.754 345.83 253.551 349.202 251.578ZM214.457 173.788C216.373 172.815 218.491 172.309 220.64 172.309C222.788 172.309 224.907 172.815 226.822 173.788C230.194 175.76 230.194 178.955 226.822 180.927C224.907 181.899 222.788 182.406 220.64 182.406C218.491 182.406 216.373 181.899 214.457 180.927C211.043 178.955 211.043 175.76 214.457 173.788V173.788Z" fill="#006372"/>
<path fill-rule="evenodd" clip-rule="evenodd" d="M158.464 331.088L39.4474 262.384L256.518 137.063L419.938 231.416L217.163 348.486L187.029 331.088H158.464ZM349.202 244.675C351.118 243.703 353.236 243.196 355.385 243.196C357.533 243.196 359.651 243.703 361.567 244.675C364.981 246.647 364.981 249.842 361.567 251.814C359.651 252.786 357.533 253.293 355.385 253.293C353.236 253.293 351.118 252.786 349.202 251.814C345.83 249.842 345.83 246.647 349.202 244.675ZM159.079 318.234C160.996 317.266 163.114 316.761 165.262 316.761C167.41 316.761 169.527 317.266 171.444 318.234C174.816 320.207 174.816 323.41 171.444 325.373C169.528 326.346 167.41 326.852 165.262 326.852C163.113 326.852 160.995 326.346 159.079 325.373C155.708 323.41 155.708 320.207 159.079 318.234ZM70.8789 267.315C72.7948 266.343 74.913 265.836 77.0615 265.836C79.21 265.836 81.3282 266.343 83.2441 267.315C86.6157 269.287 86.6157 272.482 83.2441 274.454C81.3282 275.426 79.21 275.933 77.0615 275.933C74.913 275.933 72.7948 275.426 70.8789 274.454C67.5073 272.482 67.5073 269.287 70.8789 267.315ZM214.457 166.893C216.373 165.921 218.491 165.414 220.64 165.414C222.788 165.414 224.907 165.921 226.822 166.893C230.194 168.857 230.194 172.06 226.822 174.024C224.907 174.996 222.788 175.502 220.64 175.502C218.491 175.502 216.373 174.996 214.457 174.024C211.043 172.06 211.043 168.857 214.457 166.893V166.893Z" fill="#008197"/>
<path fill-rule="evenodd" clip-rule="evenodd" d="M363.177 183.144L313.312 211.937L348.789 232.428L398.655 203.634L363.177 183.144Z" fill="#BCBEBE"/>
<path fill-rule="evenodd" clip-rule="evenodd" d="M363.177 146.992L313.312 175.785L348.789 196.268L398.655 167.483L363.177 146.992Z" fill="#EEECEB"/>
<path fill-rule="evenodd" clip-rule="evenodd" d="M348.865 196.318L313.312 175.785V211.937L348.865 232.47V196.318Z" fill="#D3D6D8"/>
<path fill-rule="evenodd" clip-rule="evenodd" d="M398.655 167.483L348.865 196.234V232.47L398.655 203.719V167.483Z" fill="#8A979D"/>
<path fill-rule="evenodd" clip-rule="evenodd" d="M205.371 150.372L67.6084 229.916V251.62L205.371 172.085V150.372Z" fill="#4D535D"/>
<path fill-rule="evenodd" clip-rule="evenodd" d="M205.548 172.186L67.6084 251.831L77.5292 257.554L215.469 177.918L205.548 172.186Z" fill="#626370"/>
<path fill-rule="evenodd" clip-rule="evenodd" d="M205.548 150.482L67.6084 230.118L77.6641 235.926L215.612 156.289L205.548 150.482Z" fill="#626370"/>
<path fill-rule="evenodd" clip-rule="evenodd" d="M215.469 156.205L77.7062 235.74V257.453L215.469 177.918V156.205Z" fill="#4D535D"/>
<path fill-rule="evenodd" clip-rule="evenodd" d="M77.7063 235.951L67.6084 230.118V251.831L77.7063 257.655V235.951Z" fill="#565F6C"/>
<path fill-rule="evenodd" clip-rule="evenodd" d="M78.8526 225.002L71.9578 228.98L78.8526 232.959L85.7475 228.98L78.8526 225.002Z" fill="#4D535D"/>
<path fill-rule="evenodd" clip-rule="evenodd" d="M85.7475 228.98L78.8526 225.002V240.924L85.7475 244.902V228.98Z" fill="#41444B"/>
<path fill-rule="evenodd" clip-rule="evenodd" d="M89.1949 219.026L82.3 223.013L89.1949 226.991L96.0898 223.013L89.1949 219.026Z" fill="#4D535D"/>
<path fill-rule="evenodd" clip-rule="evenodd" d="M96.0898 223.013L89.1949 219.026V234.956L96.0898 238.935V223.013Z" fill="#41444B"/>
<path fill-rule="evenodd" clip-rule="evenodd" d="M99.5372 213.058L92.6423 217.036L99.5372 221.015L106.432 217.036L99.5372 213.058Z" fill="#4D535D"/>
<path fill-rule="evenodd" clip-rule="evenodd" d="M106.432 217.036L99.5372 213.058V228.98L106.432 232.959V217.036Z" fill="#41444B"/>
<path fill-rule="evenodd" clip-rule="evenodd" d="M109.888 207.09L102.985 211.069L109.888 215.047L116.774 211.069L109.888 207.09Z" fill="#4D535D"/>
<path fill-rule="evenodd" clip-rule="evenodd" d="M116.774 211.069L109.888 207.09V223.013L116.774 226.991V211.069Z" fill="#41444B"/>
<path fill-rule="evenodd" clip-rule="evenodd" d="M120.222 201.114L113.335 205.093L120.222 209.08L127.125 205.093L120.222 201.114Z" fill="#4D535D"/>
<path fill-rule="evenodd" clip-rule="evenodd" d="M127.125 205.093L120.222 201.114V217.036L127.125 221.015V205.093Z" fill="#41444B"/>
<path fill-rule="evenodd" clip-rule="evenodd" d="M130.573 195.147L123.669 199.125L130.573 203.103L137.467 199.125L130.573 195.147Z" fill="#4D535D"/>
<path fill-rule="evenodd" clip-rule="evenodd" d="M137.467 199.125L130.573 195.147V211.069L137.467 215.047V199.125Z" fill="#41444B"/>
<path fill-rule="evenodd" clip-rule="evenodd" d="M140.915 189.17L134.02 193.157L140.915 197.136L147.81 193.157L140.915 189.17Z" fill="#4D535D"/>
<path fill-rule="evenodd" clip-rule="evenodd" d="M147.81 193.157L140.915 189.17V205.093L147.81 209.08V193.157Z" fill="#41444B"/>
<path fill-rule="evenodd" clip-rule="evenodd" d="M151.257 183.203L144.362 187.181L151.257 191.16L158.152 187.181L151.257 183.203Z" fill="#4D535D"/>
<path fill-rule="evenodd" clip-rule="evenodd" d="M158.152 187.181L151.257 183.203V199.125L158.152 203.103V187.181Z" fill="#41444B"/>
<path fill-rule="evenodd" clip-rule="evenodd" d="M161.599 177.227L154.705 181.214L161.599 185.192L168.494 181.214L161.599 177.227Z" fill="#4D535D"/>
<path fill-rule="evenodd" clip-rule="evenodd" d="M168.494 181.214L161.599 177.227V193.157L168.494 197.136V181.214Z" fill="#41444B"/>
<path fill-rule="evenodd" clip-rule="evenodd" d="M171.942 171.259L165.047 175.237L171.942 179.216L178.837 175.237L171.942 171.259Z" fill="#4D535D"/>
<path fill-rule="evenodd" clip-rule="evenodd" d="M178.837 175.237L171.942 171.259V187.181L178.837 191.16V175.237Z" fill="#41444B"/>
<path fill-rule="evenodd" clip-rule="evenodd" d="M182.284 165.283L175.389 169.27L182.284 173.248L189.179 169.27L182.284 165.283Z" fill="#4D535D"/>
<path fill-rule="evenodd" clip-rule="evenodd" d="M189.179 169.27L182.284 165.283V181.214L189.179 185.192V169.27Z" fill="#41444B"/>
<path fill-rule="evenodd" clip-rule="evenodd" d="M192.626 159.315L185.731 163.294L192.626 167.281L199.521 163.294L192.626 159.315Z" fill="#4D535D"/>
<path fill-rule="evenodd" clip-rule="evenodd" d="M199.521 163.294L192.626 159.315V175.237L199.521 179.216V163.294Z" fill="#41444B"/>
<path fill-rule="evenodd" clip-rule="evenodd" d="M202.969 153.347L196.074 157.326L202.969 161.304L209.863 157.326L202.969 153.347Z" fill="#4D535D"/>
<path fill-rule="evenodd" clip-rule="evenodd" d="M209.863 157.326L202.969 153.347V169.27L209.863 173.248V157.326Z" fill="#41444B"/>
<path fill-rule="evenodd" clip-rule="evenodd" d="M290.334 105.471C301.435 111.886 310.446 127.488 310.446 140.308C310.446 153.128 301.435 158.329 290.334 151.915C279.234 145.5 270.223 129.898 270.223 117.086C270.223 104.274 279.234 99.0652 290.334 105.471Z" fill="#41444B"/>
<path fill-rule="evenodd" clip-rule="evenodd" d="M269.068 108.463L275.972 104.477L297.802 116.184C305.827 125.979 308.617 137.948 305.844 152.252C305.844 152.252 297.743 156.618 297.802 156.896C297.861 157.174 269.068 108.463 269.068 108.463V108.463Z" fill="#41444B"/>
<path fill-rule="evenodd" clip-rule="evenodd" d="M284.055 109.121C295.156 115.535 304.166 131.137 304.166 143.958C304.166 156.778 295.114 161.979 284.055 155.564C272.996 149.15 263.943 133.548 263.943 120.736C263.943 107.924 272.954 102.715 284.055 109.121Z" fill="#4F5560"/>
<path fill-rule="evenodd" clip-rule="evenodd" d="M283.389 114.574C292.29 119.497 299.522 131.508 299.522 141.37C299.522 151.232 292.29 155.227 283.389 150.296C274.488 145.365 267.248 133.363 267.248 123.501C267.248 113.639 274.48 109.643 283.389 114.574Z" fill="#41444B"/>
<path fill-rule="evenodd" clip-rule="evenodd" d="M239.382 132.444L271.858 113.791L289.382 122.793C295.822 130.328 298.064 139.541 295.838 150.541C295.838 150.541 262.418 169.438 262.46 169.649C262.502 169.86 239.382 132.444 239.382 132.444Z" fill="#41444B"/>
<path fill-rule="evenodd" clip-rule="evenodd" d="M251.831 132.663C260.74 137.594 267.973 149.605 267.973 159.458C267.973 169.312 260.74 173.324 251.831 168.393C242.922 163.462 235.698 151.459 235.698 141.606C235.698 131.753 242.93 127.749 251.831 132.671V132.663Z" fill="#4F5560"/>
<path fill-rule="evenodd" clip-rule="evenodd" d="M267.323 161.304V178.558L298.35 159.315V144.716L267.323 161.304Z" fill="#41444B"/>
<path fill-rule="evenodd" clip-rule="evenodd" d="M236.297 146.048V160.639L267.323 178.558V158.649L236.297 146.048Z" fill="#4F5560"/>
<path fill-rule="evenodd" clip-rule="evenodd" d="M240.317 165.451L244.338 167.769L243.849 168.056C243.67 168.156 243.468 168.208 243.263 168.208C243.058 168.208 242.856 168.156 242.677 168.056L239.854 166.421C239.792 166.385 239.742 166.334 239.706 166.273C239.671 166.211 239.652 166.142 239.652 166.071C239.652 166 239.671 165.931 239.706 165.869C239.742 165.808 239.792 165.757 239.854 165.721L240.317 165.451Z" fill="#3C393C"/>
<path fill-rule="evenodd" clip-rule="evenodd" d="M239.904 162.189C239.911 161.843 240.007 161.505 240.184 161.208C240.362 160.91 240.613 160.664 240.915 160.494C241.216 160.324 241.556 160.235 241.903 160.237C242.249 160.239 242.588 160.331 242.888 160.504L243.217 160.689C243.349 160.764 243.459 160.873 243.535 161.005C243.611 161.137 243.649 161.287 243.647 161.439V166.893C243.648 167.015 243.617 167.136 243.556 167.243C243.495 167.35 243.407 167.438 243.301 167.5C243.197 167.562 243.077 167.595 242.955 167.595C242.834 167.595 242.714 167.562 242.61 167.5L240.84 166.48C240.556 166.317 240.321 166.083 240.156 165.8C239.992 165.517 239.905 165.197 239.904 164.87V162.206V162.189Z" fill="#BCBEBE"/>
<path fill-rule="evenodd" clip-rule="evenodd" d="M239.904 160.917C239.904 160.74 240.283 160.731 240.899 160.917C241.591 161.122 242.259 161.405 242.888 161.76L243.217 161.953C243.486 162.105 243.647 162.248 243.647 162.324V163.707C243.647 163.774 243.52 163.774 243.301 163.707C243.06 163.631 242.829 163.529 242.61 163.403L240.84 162.383C240.258 162.046 239.904 161.743 239.904 161.54V160.866V160.917Z" fill="white"/>
<path fill-rule="evenodd" clip-rule="evenodd" d="M242.618 163.125C242.619 162.791 242.71 162.463 242.882 162.176C243.054 161.89 243.301 161.655 243.596 161.498C243.906 161.34 244.25 161.262 244.597 161.271C244.945 161.279 245.284 161.375 245.585 161.549L245.914 161.743C246.045 161.814 246.154 161.919 246.231 162.046C246.308 162.173 246.35 162.319 246.352 162.468V167.736C246.351 167.853 246.317 167.968 246.255 168.068C246.192 168.167 246.103 168.248 245.998 168.3C245.892 168.359 245.774 168.389 245.653 168.389C245.532 168.389 245.413 168.359 245.307 168.3L243.537 167.28C243.26 167.122 243.028 166.894 242.866 166.62C242.703 166.345 242.615 166.032 242.61 165.713V163.184L242.618 163.125Z" fill="#546E79"/>
<path fill-rule="evenodd" clip-rule="evenodd" d="M247.81 169.759L251.823 172.085L251.334 172.363C251.156 172.467 250.954 172.521 250.748 172.521C250.542 172.521 250.34 172.467 250.162 172.363L247.338 170.736C247.277 170.7 247.227 170.648 247.192 170.586C247.157 170.524 247.138 170.454 247.138 170.382C247.138 170.311 247.157 170.241 247.192 170.179C247.227 170.117 247.277 170.065 247.338 170.028L247.81 169.759Z" fill="#3C393C"/>
<path fill-rule="evenodd" clip-rule="evenodd" d="M247.381 166.505C247.388 166.16 247.485 165.823 247.661 165.527C247.838 165.231 248.089 164.986 248.389 164.816C248.689 164.646 249.028 164.557 249.373 164.557C249.718 164.558 250.057 164.648 250.356 164.819L250.685 165.013C250.819 165.087 250.931 165.195 251.008 165.327C251.085 165.46 251.125 165.61 251.123 165.763V171.234C251.121 171.355 251.088 171.474 251.026 171.579C250.965 171.684 250.877 171.771 250.771 171.831C250.666 171.891 250.546 171.923 250.425 171.923C250.303 171.924 250.184 171.892 250.078 171.832L248.308 170.812C248.025 170.649 247.791 170.414 247.628 170.132C247.465 169.849 247.38 169.528 247.381 169.202V166.547V166.505Z" fill="#BCBEBE"/>
<path fill-rule="evenodd" clip-rule="evenodd" d="M247.381 165.207C247.381 165.022 247.76 165.022 248.375 165.207C249.064 165.414 249.729 165.697 250.356 166.05L250.685 166.235C250.954 166.395 251.123 166.53 251.123 166.615V167.997C251.123 168.056 250.988 168.064 250.769 167.997C250.529 167.924 250.297 167.825 250.078 167.702L248.308 166.682C247.735 166.345 247.381 166.041 247.381 165.839V165.207V165.207Z" fill="white"/>
<path fill-rule="evenodd" clip-rule="evenodd" d="M250.086 167.432C250.088 167.097 250.182 166.769 250.357 166.484C250.532 166.198 250.783 165.967 251.081 165.814C251.389 165.656 251.732 165.577 252.078 165.586C252.424 165.595 252.762 165.691 253.062 165.864L253.399 166.058C253.528 166.131 253.635 166.236 253.711 166.363C253.786 166.49 253.827 166.635 253.829 166.783V172.009C253.827 172.127 253.794 172.242 253.733 172.342C253.672 172.443 253.586 172.526 253.483 172.582C253.376 172.641 253.256 172.671 253.133 172.671C253.011 172.671 252.891 172.641 252.784 172.582L251.013 171.562C250.736 171.407 250.503 171.181 250.341 170.907C250.178 170.633 250.09 170.322 250.086 170.003V167.474V167.432Z" fill="#546E79"/>
<path fill-rule="evenodd" clip-rule="evenodd" d="M255.262 174.074L259.282 176.392L258.793 176.679C258.614 176.782 258.41 176.837 258.203 176.837C257.996 176.837 257.793 176.782 257.613 176.679L254.79 175.052C254.729 175.015 254.678 174.963 254.643 174.901C254.608 174.839 254.589 174.769 254.589 174.698C254.589 174.627 254.608 174.557 254.643 174.495C254.678 174.433 254.729 174.381 254.79 174.344L255.262 174.074Z" fill="#3C393C"/>
<path fill-rule="evenodd" clip-rule="evenodd" d="M254.849 170.812C254.855 170.466 254.952 170.128 255.129 169.83C255.306 169.533 255.558 169.287 255.859 169.117C256.16 168.947 256.501 168.858 256.847 168.86C257.193 168.861 257.533 168.953 257.832 169.126L258.161 169.32C258.293 169.394 258.402 169.502 258.477 169.632C258.553 169.763 258.592 169.911 258.591 170.062V175.541C258.589 175.662 258.557 175.78 258.496 175.885C258.436 175.99 258.349 176.077 258.245 176.139C258.139 176.202 258.019 176.234 257.896 176.234C257.773 176.234 257.652 176.202 257.546 176.139L255.776 175.119C255.493 174.956 255.259 174.722 255.096 174.439C254.933 174.156 254.848 173.836 254.849 173.509V170.846V170.812Z" fill="#BCBEBE"/>
<path fill-rule="evenodd" clip-rule="evenodd" d="M254.849 169.539C254.849 169.362 255.228 169.362 255.843 169.539C256.537 169.741 257.205 170.024 257.832 170.382L258.161 170.576C258.422 170.728 258.591 170.871 258.591 170.947V172.338C258.591 172.397 258.456 172.397 258.245 172.338C258.001 172.265 257.766 172.164 257.546 172.034L255.776 171.015C255.203 170.686 254.849 170.374 254.849 170.172V169.497V169.539Z" fill="white"/>
<path fill-rule="evenodd" clip-rule="evenodd" d="M257.554 171.748C257.555 171.413 257.648 171.084 257.824 170.799C257.999 170.513 258.25 170.282 258.549 170.129C258.858 169.97 259.202 169.891 259.55 169.899C259.898 169.908 260.238 170.005 260.538 170.18L260.867 170.365C260.996 170.438 261.103 170.543 261.179 170.67C261.254 170.798 261.295 170.942 261.297 171.09V176.325C261.296 176.441 261.264 176.556 261.203 176.655C261.142 176.755 261.055 176.836 260.951 176.889C260.844 176.949 260.724 176.981 260.601 176.981C260.479 176.981 260.358 176.949 260.252 176.889L258.482 175.87C258.203 175.712 257.972 175.484 257.809 175.209C257.646 174.934 257.558 174.621 257.554 174.302V171.773V171.748Z" fill="#546E79"/>
<path fill-rule="evenodd" clip-rule="evenodd" d="M387.453 217.652L365.259 230.464L387.453 243.276L409.646 230.464L387.453 217.652Z" fill="#4F5560"/>
<path fill-rule="evenodd" clip-rule="evenodd" d="M387.453 210.184L365.259 222.996L387.453 235.808L409.646 222.996L387.453 210.184Z" fill="#BCBEBE"/>
<path fill-rule="evenodd" clip-rule="evenodd" d="M409.646 222.996L387.925 235.538V243.006L409.646 230.464V222.996Z" fill="#4F5560"/>
<path fill-rule="evenodd" clip-rule="evenodd" d="M387.453 235.808L365.259 222.996V230.464L387.453 243.276V235.808Z" fill="#5B6675"/>
<path fill-rule="evenodd" clip-rule="evenodd" d="M381.443 241.91L385.455 244.228L384.966 244.506C384.788 244.61 384.586 244.665 384.38 244.665C384.174 244.665 383.972 244.61 383.794 244.506L380.988 242.846C380.926 242.81 380.875 242.759 380.84 242.698C380.805 242.636 380.786 242.567 380.786 242.496C380.786 242.425 380.805 242.356 380.84 242.294C380.875 242.233 380.926 242.182 380.988 242.146L381.46 241.877L381.443 241.91Z" fill="#3C393C"/>
<path fill-rule="evenodd" clip-rule="evenodd" d="M381.03 238.615C381.034 238.269 381.13 237.93 381.306 237.633C381.482 237.335 381.733 237.089 382.034 236.918C382.335 236.748 382.675 236.659 383.021 236.661C383.367 236.663 383.706 236.755 384.005 236.929L384.334 237.114C384.467 237.189 384.577 237.298 384.652 237.43C384.728 237.562 384.766 237.712 384.764 237.864V243.335C384.765 243.457 384.734 243.578 384.673 243.685C384.612 243.792 384.524 243.88 384.418 243.942C384.312 244 384.193 244.03 384.073 244.03C383.952 244.03 383.833 244 383.727 243.942L381.957 242.922C381.675 242.756 381.441 242.519 381.278 242.236C381.116 241.952 381.03 241.63 381.03 241.303V238.648V238.615Z" fill="#BCBEBE"/>
<path fill-rule="evenodd" clip-rule="evenodd" d="M381.03 237.342C381.03 237.165 381.401 237.156 382.016 237.342C382.708 237.547 383.376 237.83 384.005 238.185L384.334 238.378C384.604 238.53 384.764 238.674 384.764 238.749V240.132C384.764 240.199 384.637 240.199 384.418 240.132C384.177 240.056 383.946 239.954 383.727 239.828L381.957 238.808C381.384 238.471 381.03 238.168 381.03 237.965V237.291V237.342Z" fill="white"/>
<path fill-rule="evenodd" clip-rule="evenodd" d="M383.735 239.542C383.738 239.207 383.832 238.879 384.007 238.594C384.183 238.309 384.432 238.077 384.73 237.923C385.038 237.765 385.381 237.687 385.727 237.696C386.073 237.704 386.411 237.8 386.711 237.974L387.039 238.168C387.17 238.239 387.279 238.344 387.356 238.471C387.433 238.598 387.475 238.744 387.478 238.893V244.127C387.476 244.245 387.442 244.359 387.38 244.459C387.318 244.559 387.229 244.639 387.124 244.692C387.017 244.748 386.899 244.777 386.778 244.777C386.658 244.777 386.539 244.748 386.433 244.692L384.663 243.672C384.385 243.514 384.154 243.286 383.991 243.011C383.828 242.736 383.74 242.423 383.735 242.104V239.575V239.542Z" fill="#546E79"/>
<path fill-rule="evenodd" clip-rule="evenodd" d="M367.695 233.936L371.707 236.254L371.218 236.541C371.041 236.645 370.838 236.699 370.633 236.699C370.427 236.699 370.225 236.645 370.047 236.541L367.223 234.906C367.161 234.872 367.11 234.822 367.074 234.761C367.038 234.7 367.02 234.631 367.021 234.56C367.021 234.489 367.04 234.419 367.075 234.357C367.111 234.294 367.162 234.243 367.223 234.206L367.695 233.936V233.936Z" fill="#3C393C"/>
<path fill-rule="evenodd" clip-rule="evenodd" d="M367.282 230.674C367.287 230.329 367.382 229.99 367.558 229.693C367.734 229.395 367.985 229.149 368.286 228.978C368.587 228.808 368.927 228.719 369.273 228.721C369.619 228.723 369.958 228.815 370.257 228.989L370.586 229.183C370.718 229.256 370.827 229.364 370.903 229.495C370.978 229.625 371.017 229.774 371.016 229.924V235.403C371.017 235.525 370.985 235.644 370.925 235.749C370.864 235.854 370.776 235.942 370.671 236.002C370.566 236.064 370.447 236.097 370.325 236.097C370.203 236.097 370.084 236.064 369.979 236.002L368.209 234.982C367.927 234.818 367.693 234.583 367.531 234.301C367.368 234.018 367.282 233.698 367.282 233.372V230.708V230.674Z" fill="#BCBEBE"/>
<path fill-rule="evenodd" clip-rule="evenodd" d="M367.282 229.402C367.282 229.225 367.653 229.225 368.268 229.402C368.962 229.603 369.63 229.886 370.258 230.245L370.586 230.438C370.856 230.59 371.016 230.733 371.016 230.809V232.2C371.016 232.259 370.89 232.259 370.671 232.2C370.429 232.128 370.197 232.026 369.979 231.897L368.209 230.877C367.636 230.548 367.282 230.236 367.282 230.034V229.36V229.402Z" fill="white"/>
<path fill-rule="evenodd" clip-rule="evenodd" d="M370.03 231.61C370.031 231.275 370.124 230.946 370.299 230.661C370.475 230.375 370.726 230.144 371.025 229.992C371.332 229.832 371.675 229.753 372.021 229.762C372.368 229.77 372.706 229.867 373.005 230.042L373.334 230.228C373.465 230.299 373.574 230.404 373.651 230.531C373.728 230.658 373.77 230.804 373.772 230.953V236.187C373.772 236.305 373.738 236.42 373.676 236.52C373.613 236.62 373.524 236.7 373.418 236.752C373.313 236.812 373.194 236.843 373.073 236.843C372.952 236.843 372.833 236.812 372.727 236.752L370.957 235.732C370.679 235.574 370.447 235.347 370.285 235.072C370.122 234.796 370.034 234.484 370.03 234.164V231.635V231.61Z" fill="#546E79"/>
<path fill-rule="evenodd" clip-rule="evenodd" d="M379.782 218.385C384.275 215.789 391.583 215.789 396.058 218.385C400.534 220.981 400.551 225.187 396.058 227.775C391.566 230.363 384.258 230.371 379.782 227.775C375.306 225.179 375.298 220.973 379.782 218.385Z" fill="#5B6675"/>
<path fill-rule="evenodd" clip-rule="evenodd" d="M380.33 219.321C384.545 216.902 391.288 216.902 395.502 219.321C399.717 221.74 399.717 225.668 395.502 228.087C391.288 230.506 384.502 230.514 380.33 228.087C376.158 225.659 376.116 221.74 380.33 219.321Z" fill="#EC7850"/>
<path fill-rule="evenodd" clip-rule="evenodd" d="M398.655 217.508V224.268L377.186 223.839V217.517L398.655 217.508Z" fill="#EC7850"/>
<path fill-rule="evenodd" clip-rule="evenodd" d="M380.33 212.535C384.545 210.116 391.288 210.116 395.502 212.535C399.717 214.955 399.717 218.882 395.502 221.301C391.288 223.721 384.502 223.721 380.33 221.301C376.158 218.882 376.116 214.955 380.33 212.535Z" fill="#F18F70"/>
<path fill-rule="evenodd" clip-rule="evenodd" d="M334.274 228.163L315.663 238.901L328.593 246.369L347.204 235.622L334.274 228.163Z" fill="#626370"/>
<path fill-rule="evenodd" clip-rule="evenodd" d="M270.408 201.401L270.307 194.877L296.277 183.076L308.752 182.385V188.918C308.634 190.258 307.656 191.531 306.012 192.483L284.586 204.823C282.924 205.665 281.088 206.104 279.225 206.104C277.362 206.104 275.526 205.665 273.864 204.823L273.106 204.385C271.855 203.767 270.889 202.693 270.408 201.384V201.401Z" fill="#BCBEBE"/>
<path fill-rule="evenodd" clip-rule="evenodd" d="M224.977 180.969H224.884V165.974L247.642 163.825V180.817H247.507C248.047 182.815 246.976 184.931 244.312 186.465C239.879 188.993 232.672 188.993 228.239 186.465C225.642 184.964 224.564 182.925 225.002 180.969H224.977Z" fill="#BCBEBE"/>
<path fill-rule="evenodd" clip-rule="evenodd" d="M244.287 169.615C239.854 172.144 232.647 172.144 228.213 169.615C223.78 167.087 223.771 162.872 228.213 160.343C232.655 157.815 239.854 157.815 244.287 160.343C248.721 162.872 248.729 167.087 244.287 169.615Z" fill="#DADDDF"/>
<path fill-rule="evenodd" clip-rule="evenodd" d="M206.669 191.547H206.568V176.552L229.326 174.403V191.387H229.191C229.722 193.385 228.66 195.501 225.996 197.035C221.554 199.563 214.356 199.563 209.914 197.035C207.318 195.543 206.247 193.494 206.686 191.547H206.669Z" fill="#BCBEBE"/>
<path fill-rule="evenodd" clip-rule="evenodd" d="M225.98 180.185C221.538 182.714 214.339 182.714 209.897 180.185C205.455 177.657 205.464 173.442 209.897 170.913C214.331 168.385 221.538 168.385 225.98 170.913C230.422 173.442 230.413 177.657 225.98 180.185Z" fill="#DADDDF"/>
<path fill-rule="evenodd" clip-rule="evenodd" d="M299.581 252.59L311.761 245.56L305.456 241.919L293.276 248.948L299.581 252.59Z" fill="#BCBEBE"/>
<path fill-rule="evenodd" clip-rule="evenodd" d="M287.072 245.366L299.252 238.336L292.956 234.704L280.776 241.733L287.072 245.366Z" fill="#BCBEBE"/>
<path fill-rule="evenodd" clip-rule="evenodd" d="M274.598 238.311L286.769 231.273L280.473 227.64L268.293 234.67L274.598 238.311Z" fill="#BCBEBE"/>
<path fill-rule="evenodd" clip-rule="evenodd" d="M275.584 236.305L283.558 231.703L279.436 229.317L271.454 233.928L275.584 236.305Z" fill="#DBDFE1"/>
<path fill-rule="evenodd" clip-rule="evenodd" d="M288 243.478L295.982 238.876L291.852 236.49L283.878 241.093L288 243.478Z" fill="#DBDFE1"/>
<path fill-rule="evenodd" clip-rule="evenodd" d="M300.399 250.634L308.372 246.032L304.251 243.647L296.268 248.249L300.399 250.634Z" fill="#DBDFE1"/>
<path fill-rule="evenodd" clip-rule="evenodd" d="M284.021 224.243L296.622 216.969L284.021 209.695L271.42 216.969L284.021 224.243Z" fill="#626370"/>
<path fill-rule="evenodd" clip-rule="evenodd" d="M284.021 223.611L296.622 216.328L284.021 209.054L271.42 216.328L284.021 223.611Z" fill="#626A75"/>
<path fill-rule="evenodd" clip-rule="evenodd" d="M304.891 236.288L317.492 229.014L304.891 221.74L292.29 229.014L304.891 236.288Z" fill="#626370"/>
<path fill-rule="evenodd" clip-rule="evenodd" d="M304.891 235.656L317.492 228.382L304.891 221.108L292.29 228.382L304.891 235.656Z" fill="#626A75"/>
<path fill-rule="evenodd" clip-rule="evenodd" d="M90.4255 277.742L240.385 191.16L266.674 206.332L272.499 204.25V209.703L116.454 299.792L84.3483 281.256V275.795L90.4255 277.742Z" fill="#49484E"/>
<path fill-rule="evenodd" clip-rule="evenodd" d="M272.499 204.25L116.774 294.153V299.471L272.499 209.568V204.25Z" fill="#2F2A2A"/>
<path fill-rule="evenodd" clip-rule="evenodd" d="M116.454 294.338L272.499 204.25L240.385 185.706L84.3483 275.795L116.454 294.338Z" fill="#626370"/>
<path fill-rule="evenodd" clip-rule="evenodd" d="M115.847 292.804L269.844 203.896L240.401 186.895L86.4049 275.803L115.847 292.804Z" fill="#2F2A2A"/>
<path fill-rule="evenodd" clip-rule="evenodd" d="M104.139 267.037L242.365 187.232L253.045 193.402L254.452 190.873L268.47 192.062V202.303L114.482 291.219L88.3688 276.14V265.899L104.906 264.828L104.139 267.037Z" fill="#54535C"/>
<path fill-rule="evenodd" clip-rule="evenodd" d="M114.482 280.97L268.47 192.062L242.365 176.991L88.3688 265.899L114.482 280.97Z" fill="#5F6B7A"/>
<path fill-rule="evenodd" clip-rule="evenodd" d="M268.47 192.062L114.482 280.97V291.59L268.47 202.682V192.062Z" fill="#3C393C"/>
<path fill-rule="evenodd" clip-rule="evenodd" d="M267.677 205.244L263.657 207.562L264.146 207.849C264.324 207.953 264.526 208.007 264.732 208.007C264.937 208.007 265.14 207.953 265.317 207.849L268.141 206.214C268.203 206.18 268.255 206.13 268.29 206.069C268.326 206.008 268.344 205.939 268.343 205.868C268.344 205.796 268.326 205.726 268.29 205.664C268.255 205.602 268.203 205.55 268.141 205.514L267.677 205.244V205.244Z" fill="#3C393C"/>
<path fill-rule="evenodd" clip-rule="evenodd" d="M268.09 201.982C268.084 201.636 267.987 201.298 267.81 201.001C267.633 200.703 267.381 200.457 267.08 200.287C266.779 200.117 266.438 200.028 266.092 200.03C265.746 200.032 265.406 200.124 265.107 200.297L264.778 200.49C264.646 200.564 264.537 200.672 264.462 200.803C264.386 200.933 264.347 201.081 264.348 201.232V206.711C264.35 206.832 264.382 206.951 264.443 207.055C264.503 207.16 264.59 207.248 264.694 207.309C264.8 207.372 264.92 207.405 265.043 207.405C265.166 207.405 265.287 207.372 265.393 207.309L267.197 206.256C267.481 206.094 267.717 205.86 267.881 205.577C268.046 205.294 268.132 204.973 268.133 204.646V201.982H268.09Z" fill="#BCBEBE"/>
<path fill-rule="evenodd" clip-rule="evenodd" d="M268.09 200.71C268.09 200.533 267.711 200.533 267.096 200.71C266.402 200.911 265.734 201.194 265.107 201.553L264.778 201.746C264.508 201.898 264.348 202.041 264.348 202.117V203.508C264.348 203.567 264.483 203.567 264.694 203.508C264.938 203.436 265.173 203.334 265.393 203.205L267.155 202.185C267.736 201.856 268.09 201.544 268.09 201.342V200.667V200.71Z" fill="white"/>
<path fill-rule="evenodd" clip-rule="evenodd" d="M265.385 202.918C265.384 202.583 265.291 202.254 265.115 201.969C264.94 201.683 264.689 201.452 264.39 201.3C264.081 201.14 263.737 201.061 263.389 201.07C263.041 201.078 262.701 201.175 262.401 201.35L262.072 201.536C261.943 201.608 261.836 201.713 261.76 201.841C261.685 201.968 261.644 202.113 261.642 202.261V207.495C261.641 207.612 261.673 207.727 261.734 207.827C261.795 207.927 261.883 208.007 261.988 208.06C262.093 208.12 262.212 208.151 262.334 208.151C262.455 208.151 262.574 208.12 262.679 208.06L264.449 207.04C264.729 206.884 264.963 206.657 265.128 206.382C265.292 206.106 265.381 205.793 265.385 205.472V202.943V202.918Z" fill="#546E79"/>
<path fill-rule="evenodd" clip-rule="evenodd" d="M261.229 208.97L257.209 211.288L257.698 211.575C257.877 211.674 258.078 211.726 258.283 211.726C258.488 211.726 258.69 211.674 258.869 211.575L261.693 209.939C261.754 209.904 261.805 209.853 261.84 209.791C261.876 209.73 261.894 209.66 261.894 209.589C261.894 209.519 261.876 209.449 261.84 209.388C261.805 209.326 261.754 209.275 261.693 209.24L261.229 208.97Z" fill="#3C393C"/>
<path fill-rule="evenodd" clip-rule="evenodd" d="M261.642 205.708C261.636 205.362 261.539 205.024 261.362 204.726C261.185 204.429 260.933 204.183 260.632 204.013C260.331 203.843 259.99 203.754 259.644 203.756C259.298 203.757 258.958 203.849 258.659 204.022L258.33 204.208C258.197 204.282 258.087 204.391 258.011 204.523C257.936 204.655 257.897 204.806 257.9 204.958V210.428C257.898 210.551 257.93 210.672 257.99 210.778C258.051 210.885 258.139 210.974 258.246 211.035C258.35 211.097 258.469 211.13 258.591 211.13C258.713 211.13 258.832 211.097 258.937 211.035L260.707 210.015C260.991 209.851 261.227 209.615 261.391 209.331C261.555 209.047 261.642 208.725 261.642 208.397V205.742V205.708Z" fill="#BCBEBE"/>
<path fill-rule="evenodd" clip-rule="evenodd" d="M261.642 204.435C261.642 204.258 261.263 204.25 260.648 204.435C259.955 204.641 259.288 204.924 258.659 205.278L258.33 205.472C258.06 205.624 257.9 205.767 257.9 205.843V207.225C257.9 207.293 258.026 207.293 258.245 207.225C258.487 207.151 258.719 207.049 258.937 206.922L260.707 205.902C261.288 205.565 261.642 205.261 261.642 205.059V204.385V204.435Z" fill="white"/>
<path fill-rule="evenodd" clip-rule="evenodd" d="M258.937 206.635C258.934 206.3 258.84 205.973 258.665 205.688C258.489 205.402 258.24 205.17 257.942 205.017C257.633 204.859 257.288 204.78 256.941 204.789C256.594 204.798 256.254 204.894 255.953 205.067L255.624 205.261C255.495 205.334 255.388 205.439 255.312 205.566C255.237 205.693 255.196 205.838 255.194 205.986V211.221C255.194 211.337 255.226 211.452 255.287 211.552C255.348 211.651 255.436 211.732 255.54 211.785C255.646 211.841 255.765 211.871 255.885 211.871C256.006 211.871 256.124 211.841 256.231 211.785L258.001 210.765C258.28 210.608 258.512 210.38 258.676 210.105C258.84 209.83 258.93 209.518 258.937 209.198V206.669V206.635Z" fill="#546E79"/>
<path fill-rule="evenodd" clip-rule="evenodd" d="M254.781 212.687L250.761 215.014L251.249 215.292C251.427 215.395 251.629 215.45 251.835 215.45C252.041 215.45 252.243 215.395 252.421 215.292L255.245 213.665C255.306 213.628 255.356 213.576 255.392 213.514C255.427 213.452 255.445 213.382 255.445 213.311C255.445 213.24 255.427 213.17 255.392 213.108C255.356 213.045 255.306 212.994 255.245 212.957L254.781 212.687Z" fill="#3C393C"/>
<path fill-rule="evenodd" clip-rule="evenodd" d="M255.194 209.434C255.195 209.084 255.104 208.74 254.93 208.437C254.755 208.134 254.504 207.882 254.202 207.707C253.899 207.532 253.556 207.439 253.206 207.439C252.857 207.439 252.513 207.531 252.21 207.706L251.882 207.899C251.749 207.974 251.639 208.083 251.563 208.215C251.488 208.347 251.449 208.497 251.452 208.65V214.095C251.45 214.217 251.482 214.338 251.542 214.445C251.603 214.552 251.691 214.64 251.797 214.702C251.903 214.76 252.022 214.791 252.143 214.791C252.264 214.791 252.383 214.76 252.489 214.702L254.259 213.673C254.543 213.512 254.78 213.278 254.944 212.995C255.109 212.712 255.195 212.391 255.194 212.063V209.408V209.434Z" fill="#BCBEBE"/>
<path fill-rule="evenodd" clip-rule="evenodd" d="M255.194 208.195C255.194 208.018 254.815 208.009 254.2 208.195C253.507 208.4 252.84 208.683 252.21 209.037L251.882 209.223C251.612 209.383 251.452 209.526 251.452 209.602V210.984C251.452 211.052 251.578 211.052 251.797 210.984C252.039 210.915 252.271 210.816 252.489 210.689L254.259 209.67C254.84 209.332 255.194 209.029 255.194 208.827V208.195V208.195Z" fill="white"/>
<path fill-rule="evenodd" clip-rule="evenodd" d="M252.48 210.361C252.478 210.027 252.385 209.7 252.212 209.415C252.038 209.129 251.79 208.897 251.494 208.742C251.184 208.584 250.84 208.506 250.493 208.515C250.145 208.523 249.806 208.619 249.505 208.793L249.176 208.987C249.045 209.058 248.936 209.163 248.859 209.29C248.782 209.418 248.74 209.563 248.738 209.712V214.938C248.739 215.056 248.772 215.173 248.834 215.274C248.897 215.375 248.986 215.457 249.092 215.511C249.198 215.569 249.316 215.6 249.437 215.6C249.558 215.6 249.677 215.569 249.783 215.511L251.553 214.491C251.831 214.335 252.063 214.109 252.226 213.836C252.388 213.562 252.476 213.25 252.48 212.932V210.403V210.361Z" fill="#546E79"/>
<path fill-rule="evenodd" clip-rule="evenodd" d="M248.325 216.413L244.312 218.731L244.801 219.017C244.979 219.121 245.181 219.176 245.387 219.176C245.593 219.176 245.795 219.121 245.973 219.017L248.797 217.39C248.858 217.354 248.908 217.302 248.943 217.24C248.979 217.178 248.997 217.108 248.997 217.036C248.997 216.965 248.979 216.895 248.943 216.833C248.908 216.771 248.858 216.719 248.797 216.682L248.325 216.413Z" fill="#3C393C"/>
<path fill-rule="evenodd" clip-rule="evenodd" d="M248.738 213.151C248.733 212.805 248.638 212.466 248.462 212.169C248.285 211.871 248.034 211.625 247.734 211.454C247.433 211.284 247.092 211.195 246.747 211.197C246.401 211.199 246.061 211.291 245.762 211.465L245.434 211.659C245.302 211.733 245.193 211.84 245.117 211.971C245.042 212.101 245.002 212.25 245.004 212.401V217.879C245.004 218.001 245.036 218.12 245.096 218.225C245.157 218.33 245.244 218.417 245.349 218.478C245.454 218.538 245.574 218.57 245.695 218.57C245.816 218.57 245.935 218.538 246.04 218.478L247.811 217.466C248.093 217.303 248.327 217.069 248.49 216.786C248.653 216.503 248.738 216.183 248.738 215.856V213.193V213.151Z" fill="#BCBEBE"/>
<path fill-rule="evenodd" clip-rule="evenodd" d="M248.738 211.886C248.738 211.701 248.367 211.701 247.751 211.886C247.059 212.092 246.392 212.375 245.762 212.729L245.434 212.923C245.164 213.075 245.004 213.218 245.004 213.294V214.685C245.004 214.744 245.13 214.744 245.349 214.685C245.59 214.612 245.821 214.513 246.04 214.39L247.81 213.361C248.384 213.033 248.738 212.721 248.738 212.519V211.853V211.886Z" fill="white"/>
<path fill-rule="evenodd" clip-rule="evenodd" d="M246.032 214.095C246.031 213.76 245.938 213.431 245.762 213.146C245.587 212.86 245.336 212.628 245.037 212.476C244.73 212.317 244.387 212.237 244.04 212.246C243.694 212.255 243.355 212.352 243.057 212.527L242.728 212.712C242.597 212.784 242.488 212.888 242.411 213.016C242.334 213.143 242.292 213.289 242.29 213.437V218.672C242.29 218.789 242.324 218.905 242.386 219.004C242.449 219.104 242.538 219.185 242.644 219.236C242.749 219.296 242.868 219.328 242.989 219.328C243.11 219.328 243.229 219.296 243.335 219.236L245.105 218.217C245.383 218.061 245.615 217.835 245.778 217.561C245.94 217.287 246.028 216.976 246.032 216.657V214.128V214.095Z" fill="#546E79"/>
<path fill-rule="evenodd" clip-rule="evenodd" d="M241.91 220.138L237.898 222.456L238.387 222.743C238.565 222.847 238.767 222.901 238.973 222.901C239.179 222.901 239.381 222.847 239.559 222.743L242.382 221.108C242.444 221.074 242.496 221.024 242.531 220.963C242.567 220.902 242.585 220.833 242.585 220.762C242.585 220.69 242.567 220.62 242.531 220.558C242.496 220.495 242.444 220.444 242.382 220.408L241.91 220.138V220.138Z" fill="#3C393C"/>
<path fill-rule="evenodd" clip-rule="evenodd" d="M242.29 216.876C242.282 216.531 242.186 216.195 242.009 215.898C241.832 215.602 241.581 215.357 241.281 215.187C240.981 215.017 240.642 214.928 240.297 214.929C239.952 214.929 239.614 215.019 239.314 215.191L238.985 215.376C238.851 215.449 238.739 215.558 238.662 215.69C238.585 215.822 238.545 215.973 238.547 216.126V221.605C238.548 221.727 238.581 221.847 238.643 221.952C238.706 222.057 238.794 222.144 238.901 222.203C239.006 222.266 239.125 222.299 239.247 222.299C239.368 222.299 239.488 222.266 239.592 222.203L241.362 221.184C241.644 221.02 241.878 220.785 242.041 220.502C242.204 220.22 242.289 219.9 242.29 219.574V216.876V216.876Z" fill="#BCBEBE"/>
<path fill-rule="evenodd" clip-rule="evenodd" d="M242.29 215.604C242.29 215.427 241.91 215.427 241.295 215.604C240.606 215.811 239.941 216.094 239.314 216.446L238.985 216.64C238.716 216.792 238.547 216.935 238.547 217.011V218.402C238.547 218.461 238.682 218.461 238.901 218.402C239.143 218.329 239.375 218.228 239.592 218.099L241.362 217.079C241.936 216.75 242.29 216.438 242.29 216.236V215.561V215.604Z" fill="white"/>
<path fill-rule="evenodd" clip-rule="evenodd" d="M239.584 217.812C239.583 217.477 239.49 217.148 239.314 216.863C239.139 216.577 238.888 216.346 238.589 216.194C238.282 216.034 237.939 215.955 237.592 215.963C237.246 215.972 236.907 216.069 236.608 216.244L236.271 216.43C236.142 216.502 236.035 216.607 235.959 216.734C235.884 216.862 235.843 217.007 235.841 217.154V222.389C235.842 222.506 235.875 222.62 235.936 222.719C235.997 222.819 236.083 222.9 236.187 222.954C236.294 223.013 236.414 223.045 236.537 223.045C236.659 223.045 236.78 223.013 236.887 222.954L238.657 221.934C238.935 221.776 239.167 221.548 239.329 221.273C239.492 220.998 239.58 220.685 239.584 220.366V217.837V217.812Z" fill="#546E79"/>
<path fill-rule="evenodd" clip-rule="evenodd" d="M235.428 223.864L231.408 226.182L231.905 226.46C232.083 226.564 232.285 226.618 232.491 226.618C232.697 226.618 232.899 226.564 233.077 226.46L235.9 224.833C235.962 224.798 236.012 224.747 236.048 224.685C236.083 224.624 236.102 224.554 236.102 224.483C236.102 224.413 236.083 224.343 236.048 224.282C236.012 224.22 235.962 224.169 235.9 224.134L235.428 223.864Z" fill="#3C393C"/>
<path fill-rule="evenodd" clip-rule="evenodd" d="M235.841 220.602C235.834 220.257 235.737 219.92 235.561 219.624C235.384 219.328 235.133 219.083 234.833 218.913C234.533 218.743 234.194 218.654 233.849 218.654C233.504 218.655 233.165 218.745 232.866 218.916L232.529 219.102C232.396 219.176 232.286 219.285 232.21 219.417C232.135 219.549 232.096 219.7 232.099 219.852V225.322C232.099 225.445 232.132 225.567 232.194 225.673C232.256 225.78 232.346 225.868 232.453 225.929C232.559 225.987 232.678 226.018 232.799 226.018C232.919 226.018 233.038 225.987 233.144 225.929L234.914 224.909C235.196 224.743 235.43 224.507 235.593 224.223C235.755 223.939 235.841 223.618 235.841 223.291V220.636V220.602Z" fill="#BCBEBE"/>
<path fill-rule="evenodd" clip-rule="evenodd" d="M235.841 219.329C235.841 219.152 235.462 219.144 234.847 219.329C234.157 219.535 233.493 219.818 232.866 220.172L232.529 220.366C232.268 220.518 232.099 220.661 232.099 220.737V222.119C232.099 222.187 232.234 222.187 232.453 222.119C232.693 222.041 232.925 221.94 233.144 221.816L234.914 220.796C235.487 220.459 235.841 220.155 235.841 219.953V219.279V219.329Z" fill="white"/>
<path fill-rule="evenodd" clip-rule="evenodd" d="M233.136 221.529C233.133 221.194 233.039 220.867 232.864 220.581C232.688 220.296 232.439 220.064 232.141 219.911C231.832 219.752 231.488 219.674 231.14 219.683C230.793 219.692 230.453 219.787 230.152 219.961L229.823 220.155C229.694 220.228 229.587 220.333 229.511 220.46C229.436 220.587 229.395 220.732 229.393 220.88V226.114C229.395 226.231 229.428 226.345 229.489 226.444C229.549 226.544 229.636 226.625 229.739 226.679C229.847 226.735 229.967 226.765 230.089 226.765C230.21 226.765 230.33 226.735 230.438 226.679L232.209 225.659C232.486 225.501 232.717 225.273 232.88 224.998C233.043 224.723 233.131 224.411 233.136 224.091V221.563V221.529Z" fill="#546E79"/>
<path fill-rule="evenodd" clip-rule="evenodd" d="M228.98 227.581L224.96 229.907L225.449 230.186C225.628 230.289 225.831 230.344 226.039 230.344C226.246 230.344 226.449 230.289 226.629 230.186L229.452 228.559C229.513 228.522 229.564 228.47 229.599 228.408C229.634 228.346 229.653 228.276 229.653 228.205C229.653 228.134 229.634 228.063 229.599 228.001C229.564 227.939 229.513 227.887 229.452 227.851L228.98 227.581Z" fill="#3C393C"/>
<path fill-rule="evenodd" clip-rule="evenodd" d="M229.393 224.328C229.394 223.978 229.303 223.634 229.129 223.331C228.954 223.028 228.703 222.776 228.401 222.601C228.098 222.426 227.755 222.333 227.405 222.333C227.056 222.333 226.712 222.425 226.409 222.6L226.081 222.793C225.948 222.868 225.838 222.977 225.762 223.109C225.687 223.241 225.648 223.391 225.651 223.544V229.014C225.65 229.135 225.682 229.255 225.742 229.36C225.803 229.465 225.891 229.552 225.996 229.612C226.102 229.675 226.223 229.707 226.346 229.707C226.469 229.707 226.59 229.675 226.696 229.612L228.466 228.593C228.749 228.429 228.983 228.195 229.146 227.912C229.309 227.629 229.394 227.309 229.393 226.983V224.328V224.328Z" fill="#BCBEBE"/>
<path fill-rule="evenodd" clip-rule="evenodd" d="M229.393 223.055C229.393 222.869 229.014 222.869 228.399 223.055C227.706 223.26 227.039 223.543 226.409 223.898L226.081 224.083C225.819 224.243 225.651 224.378 225.651 224.462V225.895C225.651 225.954 225.786 225.963 225.996 225.895C226.24 225.822 226.474 225.723 226.696 225.6L228.466 224.58C229.039 224.243 229.393 223.94 229.393 223.737V223.063V223.055Z" fill="white"/>
<path fill-rule="evenodd" clip-rule="evenodd" d="M226.688 225.255C226.686 224.92 226.592 224.592 226.417 224.306C226.241 224.021 225.991 223.789 225.693 223.636C225.384 223.478 225.039 223.4 224.692 223.409C224.344 223.417 224.005 223.513 223.704 223.687L223.375 223.881C223.246 223.953 223.138 224.058 223.063 224.186C222.988 224.313 222.947 224.458 222.945 224.606V229.832C222.946 229.949 222.979 230.065 223.04 230.165C223.1 230.266 223.187 230.349 223.291 230.405C223.398 230.463 223.518 230.494 223.641 230.494C223.763 230.494 223.883 230.463 223.99 230.405L225.76 229.385C226.038 229.229 226.27 229.003 226.433 228.73C226.596 228.456 226.684 228.144 226.688 227.826V225.297V225.255Z" fill="#546E79"/>
<path fill-rule="evenodd" clip-rule="evenodd" d="M222.524 231.307L218.503 233.625L218.992 233.911C219.171 234.015 219.375 234.069 219.582 234.069C219.789 234.069 219.993 234.015 220.172 233.911L222.987 232.284C223.051 232.249 223.103 232.198 223.14 232.136C223.177 232.074 223.196 232.003 223.196 231.93C223.196 231.858 223.177 231.787 223.14 231.725C223.103 231.663 223.051 231.611 222.987 231.576L222.524 231.307V231.307Z" fill="#3C393C"/>
<path fill-rule="evenodd" clip-rule="evenodd" d="M222.945 228.045C222.939 227.699 222.842 227.36 222.665 227.063C222.488 226.766 222.236 226.52 221.935 226.349C221.633 226.179 221.293 226.091 220.947 226.092C220.601 226.094 220.261 226.186 219.961 226.359L219.633 226.553C219.501 226.627 219.392 226.734 219.316 226.865C219.241 226.995 219.201 227.144 219.203 227.294V232.773C219.204 232.894 219.237 233.013 219.298 233.118C219.358 233.222 219.444 233.31 219.548 233.372C219.654 233.434 219.775 233.467 219.898 233.467C220.021 233.467 220.142 233.434 220.248 233.372L222.018 232.352C222.3 232.189 222.535 231.954 222.698 231.671C222.861 231.389 222.946 231.068 222.945 230.742V228.078V228.045Z" fill="#BCBEBE"/>
<path fill-rule="evenodd" clip-rule="evenodd" d="M222.945 226.78C222.945 226.595 222.566 226.595 221.951 226.78C221.258 226.986 220.591 227.268 219.961 227.623L219.633 227.817C219.371 227.969 219.203 228.112 219.203 228.188V229.579C219.203 229.638 219.338 229.638 219.548 229.579C219.793 229.506 220.028 229.404 220.248 229.275L222.018 228.255C222.591 227.927 222.945 227.615 222.945 227.412V226.747V226.78Z" fill="white"/>
<path fill-rule="evenodd" clip-rule="evenodd" d="M220.239 228.98C220.239 228.645 220.145 228.317 219.97 228.031C219.794 227.746 219.544 227.514 219.245 227.362C218.936 227.202 218.591 227.123 218.244 227.132C217.896 227.141 217.556 227.237 217.256 227.412L216.927 227.598C216.798 227.67 216.69 227.776 216.615 227.903C216.539 228.03 216.499 228.175 216.497 228.323V233.557C216.498 233.674 216.53 233.788 216.591 233.888C216.652 233.987 216.739 234.068 216.843 234.122C216.949 234.182 217.07 234.213 217.192 234.213C217.315 234.213 217.435 234.182 217.542 234.122L219.304 233.102C219.584 232.948 219.818 232.723 219.983 232.449C220.147 232.175 220.236 231.862 220.239 231.543V229.014V228.98Z" fill="#546E79"/>
<path fill-rule="evenodd" clip-rule="evenodd" d="M216.084 235.032L212.063 237.35L212.552 237.637C212.73 237.74 212.932 237.795 213.138 237.795C213.344 237.795 213.546 237.74 213.724 237.637L216.548 236.002C216.609 235.966 216.66 235.915 216.695 235.854C216.73 235.792 216.749 235.723 216.749 235.652C216.749 235.581 216.73 235.511 216.695 235.45C216.66 235.389 216.609 235.338 216.548 235.302L216.084 235.032Z" fill="#3C393C"/>
<path fill-rule="evenodd" clip-rule="evenodd" d="M216.497 231.796C216.491 231.449 216.394 231.111 216.217 230.814C216.04 230.516 215.788 230.271 215.487 230.1C215.185 229.93 214.845 229.841 214.499 229.843C214.153 229.845 213.813 229.937 213.513 230.11L213.184 230.295C213.052 230.37 212.942 230.479 212.866 230.611C212.79 230.743 212.752 230.893 212.755 231.045V236.524C212.756 236.645 212.789 236.764 212.849 236.868C212.91 236.973 212.996 237.061 213.1 237.123C213.206 237.185 213.327 237.218 213.45 237.218C213.573 237.218 213.694 237.185 213.8 237.123L215.57 236.103C215.852 235.939 216.086 235.704 216.249 235.422C216.411 235.139 216.497 234.819 216.497 234.493V231.796V231.796Z" fill="#BCBEBE"/>
<path fill-rule="evenodd" clip-rule="evenodd" d="M216.497 230.497C216.497 230.32 216.118 230.32 215.502 230.497C214.81 230.703 214.143 230.986 213.513 231.34L213.184 231.534C212.915 231.686 212.755 231.829 212.755 231.905V233.296C212.755 233.355 212.889 233.355 213.1 233.296C213.345 233.223 213.58 233.122 213.8 232.992L215.57 231.973C216.143 231.644 216.497 231.332 216.497 231.13V230.455V230.497Z" fill="white"/>
<path fill-rule="evenodd" clip-rule="evenodd" d="M213.791 232.706C213.791 232.371 213.697 232.042 213.522 231.757C213.346 231.471 213.095 231.24 212.797 231.087C212.488 230.925 212.144 230.845 211.795 230.854C211.447 230.863 211.107 230.96 210.807 231.138L210.479 231.323C210.35 231.396 210.242 231.501 210.167 231.628C210.091 231.756 210.051 231.9 210.049 232.048V237.283C210.048 237.4 210.079 237.515 210.141 237.615C210.202 237.715 210.29 237.795 210.394 237.847C210.502 237.906 210.622 237.936 210.744 237.936C210.866 237.936 210.987 237.906 211.094 237.847L212.856 236.828C213.136 236.672 213.37 236.445 213.534 236.169C213.699 235.894 213.787 235.58 213.791 235.26V232.731V232.706Z" fill="#546E79"/>
<path fill-rule="evenodd" clip-rule="evenodd" d="M209.636 238.758L205.615 241.067L206.104 241.345C206.282 241.449 206.484 241.504 206.69 241.504C206.896 241.504 207.098 241.449 207.276 241.345L210.099 239.719C210.161 239.683 210.213 239.631 210.248 239.569C210.284 239.507 210.302 239.436 210.302 239.365C210.303 239.294 210.284 239.225 210.249 239.164C210.213 239.103 210.161 239.053 210.099 239.019L209.636 238.749V238.758Z" fill="#3C393C"/>
<path fill-rule="evenodd" clip-rule="evenodd" d="M210.049 235.496C210.042 235.153 209.948 234.818 209.773 234.522C209.599 234.227 209.351 233.981 209.054 233.81C208.753 233.632 208.41 233.538 208.06 233.538C207.71 233.538 207.366 233.632 207.065 233.81L206.736 233.995C206.604 234.07 206.494 234.179 206.418 234.311C206.342 234.443 206.304 234.593 206.306 234.746V240.224C206.307 240.347 206.339 240.467 206.399 240.573C206.46 240.68 206.547 240.769 206.652 240.831C206.759 240.89 206.88 240.92 207.002 240.92C207.124 240.92 207.244 240.89 207.352 240.831L209.113 239.811C209.397 239.647 209.633 239.411 209.798 239.127C209.962 238.843 210.048 238.521 210.049 238.193V235.538V235.496Z" fill="#BCBEBE"/>
<path fill-rule="evenodd" clip-rule="evenodd" d="M210.049 234.223C210.049 234.046 209.67 234.038 209.054 234.223C208.362 234.429 207.695 234.711 207.065 235.066L206.736 235.251C206.467 235.412 206.306 235.555 206.306 235.631V237.013C206.306 237.08 206.441 237.08 206.652 237.013C206.895 236.937 207.13 236.835 207.352 236.71L209.113 235.69C209.695 235.353 210.049 235.049 210.049 234.847V234.172V234.223Z" fill="white"/>
<path fill-rule="evenodd" clip-rule="evenodd" d="M207.352 236.423C207.349 236.088 207.255 235.761 207.08 235.475C206.904 235.19 206.655 234.958 206.357 234.805C206.048 234.646 205.703 234.568 205.356 234.577C205.009 234.586 204.669 234.681 204.368 234.855L204.039 235.049C203.91 235.122 203.802 235.227 203.727 235.354C203.652 235.481 203.611 235.626 203.609 235.774V241.008C203.609 241.125 203.641 241.24 203.702 241.34C203.763 241.439 203.851 241.52 203.955 241.573C204.061 241.629 204.18 241.659 204.3 241.659C204.421 241.659 204.539 241.629 204.646 241.573L206.416 240.545C206.696 240.391 206.93 240.166 207.095 239.892C207.259 239.618 207.348 239.305 207.352 238.985V236.457V236.423Z" fill="#546E79"/>
<path fill-rule="evenodd" clip-rule="evenodd" d="M203.188 242.475L199.167 244.801L199.656 245.08C199.834 245.183 200.036 245.238 200.242 245.238C200.448 245.238 200.65 245.183 200.828 245.08L203.651 243.453C203.712 243.416 203.763 243.364 203.798 243.302C203.833 243.24 203.852 243.17 203.852 243.099C203.852 243.027 203.833 242.957 203.798 242.895C203.763 242.833 203.712 242.781 203.651 242.745L203.188 242.475V242.475Z" fill="#3C393C"/>
<path fill-rule="evenodd" clip-rule="evenodd" d="M203.601 239.221C203.602 238.872 203.51 238.528 203.336 238.225C203.162 237.922 202.911 237.67 202.608 237.495C202.306 237.32 201.962 237.227 201.613 237.227C201.263 237.227 200.92 237.319 200.617 237.493L200.288 237.687C200.155 237.762 200.045 237.871 199.97 238.003C199.894 238.135 199.856 238.285 199.858 238.438V243.908C199.858 244.029 199.89 244.148 199.951 244.253C200.012 244.358 200.099 244.446 200.204 244.506C200.309 244.567 200.428 244.599 200.549 244.599C200.671 244.599 200.79 244.567 200.895 244.506L202.665 243.486C202.95 243.325 203.186 243.091 203.351 242.808C203.515 242.525 203.601 242.204 203.601 241.877V239.221V239.221Z" fill="#BCBEBE"/>
<path fill-rule="evenodd" clip-rule="evenodd" d="M203.601 237.949C203.601 237.763 203.221 237.763 202.606 237.949C201.914 238.154 201.246 238.437 200.617 238.791L200.288 238.977C200.018 239.129 199.858 239.272 199.858 239.356V240.739C199.858 240.798 199.985 240.806 200.204 240.739C200.444 240.665 200.676 240.567 200.895 240.444L202.665 239.424C203.247 239.087 203.601 238.783 203.601 238.581V237.906V237.949Z" fill="white"/>
<path fill-rule="evenodd" clip-rule="evenodd" d="M200.887 240.149C200.887 239.814 200.795 239.486 200.621 239.201C200.447 238.916 200.198 238.683 199.9 238.53C199.591 238.372 199.247 238.294 198.899 238.302C198.552 238.311 198.212 238.407 197.911 238.581L197.582 238.775C197.454 238.847 197.346 238.952 197.27 239.08C197.195 239.207 197.154 239.352 197.153 239.5V244.725C197.153 244.843 197.185 244.959 197.246 245.06C197.307 245.161 197.394 245.244 197.498 245.299C197.604 245.357 197.723 245.388 197.844 245.388C197.965 245.388 198.083 245.357 198.189 245.299L199.959 244.279C200.237 244.123 200.469 243.897 200.632 243.623C200.795 243.35 200.883 243.038 200.887 242.719V240.191V240.149Z" fill="#546E79"/>
<path fill-rule="evenodd" clip-rule="evenodd" d="M196.731 246.201L192.719 248.519L193.208 248.805C193.386 248.909 193.588 248.963 193.794 248.963C194 248.963 194.202 248.909 194.379 248.805L197.203 247.178C197.264 247.142 197.315 247.09 197.35 247.028C197.385 246.966 197.403 246.896 197.403 246.824C197.403 246.753 197.385 246.683 197.35 246.621C197.315 246.559 197.264 246.507 197.203 246.47L196.731 246.201Z" fill="#3C393C"/>
<path fill-rule="evenodd" clip-rule="evenodd" d="M197.153 242.939C197.146 242.593 197.05 242.254 196.872 241.957C196.695 241.66 196.444 241.414 196.142 241.243C195.841 241.073 195.5 240.984 195.154 240.986C194.808 240.988 194.468 241.08 194.169 241.253L193.84 241.447C193.709 241.521 193.599 241.628 193.524 241.759C193.448 241.889 193.409 242.038 193.41 242.188V247.667C193.409 247.789 193.441 247.908 193.502 248.013C193.562 248.119 193.65 248.206 193.756 248.266C193.86 248.328 193.98 248.361 194.101 248.361C194.223 248.361 194.342 248.328 194.447 248.266L196.217 247.246C196.5 247.083 196.736 246.849 196.9 246.566C197.065 246.283 197.152 245.963 197.153 245.636V242.972V242.939Z" fill="#BCBEBE"/>
<path fill-rule="evenodd" clip-rule="evenodd" d="M197.153 241.666C197.153 241.489 196.773 241.489 196.158 241.666C195.464 241.867 194.796 242.15 194.169 242.509L193.865 242.753C193.596 242.905 193.435 243.048 193.435 243.124V244.439C193.435 244.498 193.562 244.498 193.781 244.439C194.023 244.366 194.255 244.265 194.472 244.135L196.242 243.116C196.815 242.787 197.178 242.475 197.178 242.273V241.598L197.153 241.666Z" fill="white"/>
<path fill-rule="evenodd" clip-rule="evenodd" d="M194.438 243.874C194.438 243.539 194.344 243.211 194.169 242.925C193.993 242.639 193.743 242.408 193.444 242.256C193.136 242.096 192.793 242.017 192.447 242.026C192.101 242.034 191.762 242.131 191.463 242.306L191.134 242.492C191.004 242.563 190.895 242.668 190.818 242.795C190.741 242.923 190.699 243.068 190.696 243.217V248.451C190.697 248.569 190.73 248.684 190.793 248.784C190.855 248.884 190.944 248.964 191.05 249.016C191.155 249.076 191.274 249.107 191.396 249.107C191.517 249.107 191.636 249.076 191.741 249.016L193.511 247.996C193.789 247.84 194.021 247.614 194.184 247.341C194.347 247.067 194.435 246.755 194.438 246.437V243.908V243.874Z" fill="#546E79"/>
<path fill-rule="evenodd" clip-rule="evenodd" d="M190.283 249.926L186.279 252.244L186.768 252.531C186.946 252.634 187.148 252.689 187.354 252.689C187.56 252.689 187.762 252.634 187.94 252.531L190.763 250.895C190.825 250.86 190.876 250.809 190.911 250.747C190.946 250.686 190.965 250.616 190.965 250.546C190.965 250.475 190.946 250.405 190.911 250.344C190.876 250.282 190.825 250.231 190.763 250.196L190.291 249.926H190.283Z" fill="#3C393C"/>
<path fill-rule="evenodd" clip-rule="evenodd" d="M190.696 246.664C190.691 246.318 190.596 245.98 190.42 245.682C190.244 245.385 189.993 245.138 189.692 244.968C189.391 244.797 189.051 244.709 188.705 244.71C188.359 244.712 188.02 244.805 187.721 244.978L187.392 245.164C187.258 245.237 187.146 245.346 187.069 245.478C186.991 245.61 186.952 245.761 186.954 245.914V251.384C186.954 251.508 186.987 251.629 187.049 251.735C187.111 251.842 187.2 251.93 187.308 251.991C187.412 252.054 187.532 252.087 187.653 252.087C187.775 252.087 187.894 252.054 187.999 251.991L189.769 250.971C190.05 250.806 190.283 250.571 190.445 250.289C190.608 250.007 190.694 249.687 190.696 249.361V246.698V246.664Z" fill="#BCBEBE"/>
<path fill-rule="evenodd" clip-rule="evenodd" d="M190.696 245.391C190.696 245.214 190.317 245.214 189.71 245.391C189.017 245.597 188.35 245.88 187.721 246.234L187.392 246.428C187.122 246.58 186.954 246.723 186.954 246.799V248.181C186.954 248.249 187.088 248.249 187.308 248.181C187.548 248.105 187.78 248.003 187.999 247.878L189.769 246.858C190.342 246.529 190.696 246.217 190.696 246.015V245.341V245.391Z" fill="white"/>
<path fill-rule="evenodd" clip-rule="evenodd" d="M187.965 247.6C187.964 247.265 187.871 246.936 187.696 246.651C187.52 246.365 187.269 246.133 186.97 245.981C186.664 245.819 186.32 245.739 185.973 245.748C185.627 245.756 185.288 245.854 184.99 246.032L184.653 246.217C184.524 246.29 184.416 246.395 184.34 246.522C184.265 246.65 184.224 246.794 184.223 246.942V252.177C184.223 252.294 184.257 252.41 184.319 252.509C184.382 252.609 184.471 252.69 184.577 252.741C184.683 252.8 184.801 252.83 184.922 252.83C185.043 252.83 185.162 252.8 185.268 252.741L187.038 251.722C187.316 251.564 187.548 251.336 187.711 251.061C187.873 250.786 187.961 250.473 187.965 250.154V247.625V247.6Z" fill="#546E79"/>
<path fill-rule="evenodd" clip-rule="evenodd" d="M183.835 253.652L179.814 255.97L180.312 256.248C180.489 256.352 180.692 256.406 180.897 256.406C181.103 256.406 181.305 256.352 181.483 256.248L184.307 254.621C184.369 254.585 184.42 254.534 184.456 254.471C184.492 254.409 184.51 254.339 184.509 254.267C184.51 254.196 184.492 254.127 184.456 254.066C184.421 254.005 184.369 253.955 184.307 253.921L183.835 253.652V253.652Z" fill="#3C393C"/>
<path fill-rule="evenodd" clip-rule="evenodd" d="M184.248 250.39C184.242 250.047 184.147 249.711 183.972 249.416C183.798 249.121 183.55 248.875 183.253 248.704C182.954 248.526 182.612 248.432 182.263 248.432C181.914 248.432 181.572 248.526 181.273 248.704L180.935 248.889C180.803 248.964 180.693 249.073 180.617 249.205C180.541 249.337 180.503 249.487 180.506 249.64V255.11C180.506 255.233 180.539 255.354 180.601 255.461C180.663 255.568 180.752 255.656 180.86 255.717C180.965 255.775 181.084 255.806 181.205 255.806C181.326 255.806 181.445 255.775 181.551 255.717L183.321 254.688C183.603 254.525 183.838 254.291 184.001 254.008C184.163 253.725 184.249 253.405 184.248 253.079V250.423V250.39Z" fill="#BCBEBE"/>
<path fill-rule="evenodd" clip-rule="evenodd" d="M184.248 249.117C184.248 248.94 183.869 248.932 183.253 249.117C182.564 249.323 181.899 249.605 181.273 249.96L180.935 250.145C180.674 250.305 180.505 250.449 180.505 250.525V251.907C180.505 251.974 180.64 251.974 180.86 251.907C181.1 251.831 181.332 251.729 181.551 251.603L183.321 250.584C183.894 250.246 184.248 249.943 184.248 249.741V249.066V249.117Z" fill="white"/>
<path fill-rule="evenodd" clip-rule="evenodd" d="M181.542 251.317C181.54 250.982 181.446 250.654 181.27 250.369C181.095 250.084 180.845 249.852 180.548 249.699C180.238 249.54 179.894 249.462 179.547 249.471C179.199 249.48 178.859 249.575 178.558 249.749L178.23 249.943C178.101 250.015 177.993 250.121 177.918 250.248C177.842 250.375 177.802 250.52 177.8 250.668V255.902C177.801 256.019 177.834 256.133 177.895 256.232C177.956 256.331 178.042 256.412 178.145 256.467C178.253 256.523 178.373 256.552 178.495 256.552C178.617 256.552 178.737 256.523 178.845 256.467L180.615 255.439C180.893 255.283 181.125 255.057 181.288 254.783C181.451 254.51 181.538 254.198 181.542 253.879V251.351V251.317Z" fill="#546E79"/>
<path fill-rule="evenodd" clip-rule="evenodd" d="M177.387 257.369L173.366 259.695L173.864 259.973C174.041 260.077 174.243 260.132 174.449 260.132C174.655 260.132 174.857 260.077 175.035 259.973L177.85 258.347C177.912 258.31 177.962 258.258 177.997 258.196C178.032 258.134 178.051 258.064 178.051 257.993C178.051 257.921 178.032 257.851 177.997 257.789C177.962 257.727 177.912 257.675 177.85 257.639L177.378 257.369H177.387Z" fill="#3C393C"/>
<path fill-rule="evenodd" clip-rule="evenodd" d="M177.8 254.107C177.793 253.762 177.696 253.425 177.519 253.129C177.342 252.833 177.092 252.588 176.792 252.418C176.492 252.248 176.152 252.159 175.808 252.159C175.463 252.16 175.124 252.25 174.824 252.421L174.487 252.615C174.356 252.689 174.247 252.797 174.171 252.927C174.095 253.058 174.056 253.206 174.057 253.357V258.768C174.059 258.89 174.092 259.009 174.154 259.113C174.216 259.218 174.304 259.305 174.409 259.365C174.515 259.426 174.634 259.458 174.756 259.458C174.877 259.458 174.997 259.427 175.103 259.367L176.873 258.347C177.155 258.184 177.39 257.949 177.552 257.666C177.715 257.384 177.801 257.063 177.8 256.737V254.073V254.107Z" fill="#BCBEBE"/>
<path fill-rule="evenodd" clip-rule="evenodd" d="M177.8 252.868C177.8 252.682 177.421 252.682 176.805 252.868C176.114 253.068 175.449 253.351 174.824 253.711L174.487 253.896C174.226 254.048 174.057 254.191 174.057 254.275V255.658C174.057 255.717 174.192 255.725 174.403 255.658C174.646 255.585 174.881 255.486 175.103 255.363L176.873 254.334C177.446 254.006 177.8 253.694 177.8 253.492V252.868Z" fill="white"/>
<path fill-rule="evenodd" clip-rule="evenodd" d="M175.094 255.042C175.092 254.708 174.999 254.379 174.823 254.094C174.648 253.809 174.398 253.577 174.1 253.424C173.79 253.266 173.446 253.188 173.098 253.196C172.751 253.205 172.411 253.301 172.11 253.475L171.782 253.669C171.653 253.741 171.545 253.846 171.47 253.973C171.394 254.101 171.353 254.246 171.352 254.393V259.611C171.352 259.728 171.385 259.842 171.446 259.941C171.507 260.041 171.594 260.122 171.697 260.176C171.804 260.236 171.925 260.267 172.047 260.267C172.17 260.267 172.29 260.236 172.397 260.176L174.167 259.156C174.445 259 174.677 258.774 174.84 258.501C175.002 258.227 175.09 257.915 175.094 257.596V255.068V255.042Z" fill="#546E79"/>
<path fill-rule="evenodd" clip-rule="evenodd" d="M170.939 261.094L166.893 263.412L167.382 263.699C167.561 263.803 167.765 263.857 167.972 263.857C168.179 263.857 168.382 263.803 168.562 263.699L171.377 262.072C171.44 262.037 171.493 261.986 171.53 261.924C171.566 261.861 171.586 261.79 171.586 261.718C171.586 261.646 171.566 261.575 171.53 261.513C171.493 261.45 171.44 261.399 171.377 261.364L170.913 261.094H170.939Z" fill="#3C393C"/>
<path fill-rule="evenodd" clip-rule="evenodd" d="M171.352 257.832C171.345 257.486 171.249 257.148 171.072 256.851C170.894 256.553 170.643 256.308 170.341 256.137C170.04 255.967 169.699 255.878 169.353 255.88C169.007 255.882 168.668 255.974 168.368 256.147L168.039 256.341C167.908 256.414 167.798 256.522 167.723 256.653C167.647 256.783 167.608 256.932 167.609 257.082V262.561C167.611 262.682 167.644 262.801 167.704 262.905C167.765 263.01 167.851 263.098 167.955 263.16C168.061 263.222 168.182 263.255 168.305 263.255C168.428 263.255 168.548 263.222 168.654 263.16L170.424 262.14C170.707 261.977 170.941 261.742 171.104 261.459C171.267 261.177 171.352 260.856 171.352 260.53V257.866V257.832Z" fill="#BCBEBE"/>
<path fill-rule="evenodd" clip-rule="evenodd" d="M171.352 256.56C171.352 256.383 170.972 256.383 170.357 256.56C169.663 256.761 168.995 257.044 168.368 257.403L168.039 257.596C167.778 257.748 167.609 257.891 167.609 257.967V259.358C167.609 259.417 167.744 259.417 167.955 259.358C168.199 259.286 168.434 259.184 168.654 259.055L170.424 258.035C170.998 257.706 171.352 257.394 171.352 257.192V256.518V256.56Z" fill="white"/>
<path fill-rule="evenodd" clip-rule="evenodd" d="M168.646 258.768C168.645 258.433 168.552 258.104 168.376 257.819C168.201 257.533 167.95 257.302 167.651 257.15C167.342 256.99 166.998 256.911 166.65 256.92C166.303 256.928 165.963 257.025 165.662 257.2L165.333 257.386C165.204 257.458 165.097 257.563 165.021 257.691C164.946 257.818 164.905 257.963 164.904 258.111V263.345C164.904 263.462 164.937 263.576 164.998 263.675C165.059 263.775 165.146 263.856 165.249 263.91C165.356 263.97 165.476 264.001 165.599 264.001C165.721 264.001 165.842 263.97 165.949 263.91L167.719 262.89C167.997 262.733 168.23 262.505 168.393 262.23C168.555 261.955 168.643 261.642 168.646 261.322V258.793V258.768Z" fill="#546E79"/>
<path fill-rule="evenodd" clip-rule="evenodd" d="M164.491 264.82L160.47 267.138L160.959 267.425C161.138 267.524 161.34 267.577 161.545 267.577C161.75 267.577 161.951 267.524 162.13 267.425L164.954 265.789C165.015 265.754 165.066 265.703 165.102 265.641C165.137 265.58 165.155 265.51 165.155 265.44C165.155 265.369 165.137 265.299 165.102 265.238C165.066 265.176 165.015 265.125 164.954 265.09L164.491 264.82V264.82Z" fill="#3C393C"/>
<path fill-rule="evenodd" clip-rule="evenodd" d="M164.904 261.558C164.897 261.212 164.801 260.874 164.623 260.576C164.446 260.279 164.195 260.033 163.893 259.863C163.592 259.693 163.251 259.604 162.905 259.606C162.559 259.607 162.219 259.699 161.92 259.872L161.591 260.058C161.458 260.132 161.348 260.241 161.273 260.373C161.197 260.506 161.158 260.656 161.161 260.808V266.278C161.161 266.401 161.193 266.521 161.254 266.627C161.314 266.734 161.402 266.822 161.507 266.885C161.613 266.947 161.734 266.98 161.857 266.98C161.98 266.98 162.1 266.947 162.206 266.885L163.976 265.865C164.257 265.7 164.49 265.465 164.653 265.183C164.815 264.901 164.902 264.581 164.904 264.255V261.592V261.558Z" fill="#BCBEBE"/>
<path fill-rule="evenodd" clip-rule="evenodd" d="M164.904 260.285C164.904 260.108 164.524 260.108 163.909 260.285C163.216 260.491 162.549 260.774 161.92 261.128L161.591 261.322C161.321 261.474 161.161 261.617 161.161 261.693V263.075C161.161 263.143 161.296 263.143 161.507 263.075C161.75 262.999 161.985 262.898 162.206 262.772L163.976 261.752C164.55 261.423 164.904 261.111 164.904 260.909V260.235V260.285Z" fill="white"/>
<path fill-rule="evenodd" clip-rule="evenodd" d="M162.198 262.494C162.197 262.158 162.103 261.828 161.928 261.541C161.753 261.254 161.502 261.021 161.203 260.867C160.894 260.708 160.549 260.631 160.201 260.641C159.853 260.651 159.514 260.749 159.214 260.926L158.885 261.111C158.756 261.184 158.649 261.289 158.573 261.416C158.498 261.543 158.457 261.688 158.455 261.836V267.071C158.456 267.187 158.489 267.302 158.55 267.401C158.611 267.501 158.697 267.582 158.801 267.635C158.908 267.694 159.029 267.724 159.151 267.724C159.273 267.724 159.393 267.694 159.501 267.635L161.262 266.615C161.542 266.46 161.777 266.233 161.941 265.957C162.105 265.682 162.194 265.368 162.198 265.048V262.519V262.494Z" fill="#546E79"/>
<path fill-rule="evenodd" clip-rule="evenodd" d="M158.042 268.546L154.022 270.864L154.511 271.142C154.688 271.245 154.891 271.3 155.096 271.3C155.302 271.3 155.504 271.245 155.682 271.142L158.506 269.515C158.567 269.479 158.618 269.427 158.654 269.365C158.689 269.303 158.708 269.232 158.708 269.161C158.709 269.09 158.691 269.021 158.655 268.96C158.62 268.899 158.568 268.849 158.506 268.815L158.042 268.546V268.546Z" fill="#3C393C"/>
<path fill-rule="evenodd" clip-rule="evenodd" d="M158.464 265.284C158.459 264.94 158.365 264.604 158.19 264.309C158.016 264.013 157.767 263.768 157.469 263.598C157.168 263.42 156.824 263.326 156.475 263.326C156.125 263.326 155.781 263.42 155.48 263.598L155.151 263.783C155.019 263.858 154.908 263.967 154.833 264.099C154.757 264.231 154.719 264.381 154.721 264.533V270.004C154.722 270.126 154.754 270.246 154.814 270.353C154.875 270.459 154.962 270.548 155.067 270.611C155.174 270.669 155.295 270.7 155.417 270.7C155.539 270.7 155.659 270.669 155.767 270.611L157.528 269.582C157.813 269.421 158.049 269.187 158.214 268.904C158.378 268.621 158.465 268.3 158.464 267.972V265.317V265.284Z" fill="#BCBEBE"/>
<path fill-rule="evenodd" clip-rule="evenodd" d="M158.464 264.011C158.464 263.834 158.085 263.825 157.469 264.011C156.777 264.217 156.109 264.499 155.48 264.854L155.151 265.039C154.882 265.199 154.721 265.343 154.721 265.418V266.801C154.721 266.868 154.856 266.868 155.067 266.801C155.311 266.732 155.546 266.632 155.767 266.506L157.528 265.486C158.11 265.149 158.464 264.845 158.464 264.643V263.969V264.011Z" fill="white"/>
<path fill-rule="evenodd" clip-rule="evenodd" d="M155.75 266.211C155.747 265.876 155.653 265.548 155.478 265.263C155.302 264.978 155.053 264.746 154.755 264.592C154.446 264.434 154.102 264.356 153.754 264.365C153.407 264.374 153.067 264.469 152.766 264.643L152.437 264.837C152.308 264.909 152.201 265.015 152.125 265.142C152.05 265.269 152.009 265.414 152.007 265.562V270.788C152.006 270.906 152.038 271.022 152.099 271.123C152.16 271.224 152.248 271.307 152.353 271.361C152.459 271.417 152.578 271.446 152.698 271.446C152.819 271.446 152.937 271.417 153.044 271.361L154.814 270.333C155.094 270.179 155.328 269.953 155.493 269.679C155.657 269.405 155.746 269.093 155.75 268.773V266.245V266.211Z" fill="#546E79"/>
<path fill-rule="evenodd" clip-rule="evenodd" d="M151.594 272.254L147.574 274.581L148.063 274.859C148.24 274.963 148.443 275.017 148.648 275.017C148.854 275.017 149.056 274.963 149.234 274.859L152.058 273.232C152.119 273.195 152.17 273.144 152.205 273.081C152.24 273.019 152.258 272.949 152.258 272.878C152.258 272.807 152.24 272.737 152.205 272.675C152.17 272.613 152.119 272.561 152.058 272.524L151.594 272.254V272.254Z" fill="#3C393C"/>
<path fill-rule="evenodd" clip-rule="evenodd" d="M152.007 269.001C152.001 268.655 151.904 268.316 151.727 268.019C151.55 267.722 151.298 267.476 150.997 267.306C150.696 267.135 150.355 267.047 150.009 267.048C149.663 267.05 149.323 267.142 149.023 267.315L148.695 267.509C148.563 267.583 148.454 267.691 148.378 267.821C148.303 267.951 148.264 268.1 148.265 268.251V273.729C148.265 273.851 148.297 273.97 148.358 274.075C148.418 274.18 148.505 274.267 148.611 274.328C148.716 274.389 148.835 274.421 148.956 274.421C149.077 274.42 149.197 274.389 149.302 274.328L151.072 273.308C151.356 273.147 151.593 272.913 151.757 272.63C151.922 272.347 152.008 272.025 152.007 271.698V269.035V269.001Z" fill="#BCBEBE"/>
<path fill-rule="evenodd" clip-rule="evenodd" d="M152.007 267.736C152.007 267.551 151.628 267.551 151.013 267.736C150.319 267.939 149.651 268.221 149.023 268.579L148.695 268.765C148.425 268.917 148.265 269.06 148.265 269.144V270.569C148.265 270.628 148.391 270.628 148.61 270.569C148.851 270.497 149.083 270.398 149.302 270.274L151.072 269.245C151.653 268.917 152.007 268.605 152.007 268.445V267.77V267.736Z" fill="white"/>
<path fill-rule="evenodd" clip-rule="evenodd" d="M149.302 269.936C149.3 269.601 149.206 269.273 149.031 268.988C148.855 268.703 148.605 268.471 148.307 268.318C147.998 268.16 147.653 268.081 147.306 268.09C146.958 268.099 146.619 268.195 146.318 268.369L145.989 268.562C145.86 268.635 145.752 268.74 145.677 268.867C145.601 268.995 145.561 269.139 145.559 269.287V274.513C145.558 274.63 145.59 274.745 145.651 274.845C145.712 274.945 145.8 275.026 145.905 275.078C146.01 275.138 146.129 275.169 146.25 275.169C146.371 275.169 146.491 275.138 146.596 275.078L148.366 274.058C148.645 273.903 148.878 273.677 149.042 273.404C149.207 273.13 149.296 272.818 149.302 272.499V269.97V269.936Z" fill="#546E79"/>
<path fill-rule="evenodd" clip-rule="evenodd" d="M145.146 275.988L141.126 278.306L141.614 278.593C141.792 278.697 141.994 278.751 142.2 278.751C142.406 278.751 142.608 278.697 142.786 278.593L145.61 276.966C145.671 276.929 145.721 276.878 145.756 276.816C145.792 276.753 145.81 276.683 145.81 276.612C145.81 276.541 145.792 276.471 145.756 276.409C145.721 276.347 145.671 276.295 145.61 276.258L145.146 275.988V275.988Z" fill="#3C393C"/>
<path fill-rule="evenodd" clip-rule="evenodd" d="M145.559 272.726C145.553 272.38 145.456 272.042 145.279 271.745C145.102 271.447 144.85 271.201 144.549 271.031C144.247 270.861 143.907 270.772 143.561 270.774C143.215 270.776 142.875 270.868 142.575 271.041L142.247 271.234C142.115 271.308 142.006 271.416 141.93 271.547C141.855 271.677 141.815 271.825 141.817 271.976V277.455C141.816 277.576 141.847 277.696 141.908 277.801C141.969 277.906 142.057 277.993 142.162 278.053C142.267 278.116 142.386 278.149 142.508 278.149C142.63 278.149 142.749 278.116 142.853 278.053L144.624 277.034C144.908 276.872 145.145 276.638 145.309 276.355C145.474 276.072 145.56 275.751 145.559 275.424V272.76V272.726Z" fill="#BCBEBE"/>
<path fill-rule="evenodd" clip-rule="evenodd" d="M145.559 271.454C145.559 271.277 145.18 271.277 144.565 271.454C143.871 271.655 143.203 271.938 142.575 272.296L142.247 272.49C141.977 272.642 141.817 272.785 141.817 272.861V274.252C141.817 274.311 141.943 274.311 142.162 274.252C142.404 274.18 142.636 274.078 142.853 273.949L144.624 272.929C145.205 272.6 145.559 272.288 145.559 272.086V271.411V271.454Z" fill="white"/>
<path fill-rule="evenodd" clip-rule="evenodd" d="M142.845 273.662C142.844 273.328 142.752 273 142.578 272.715C142.404 272.43 142.155 272.198 141.859 272.044C141.55 271.884 141.206 271.805 140.858 271.814C140.51 271.822 140.17 271.919 139.87 272.094L139.541 272.28C139.41 272.351 139.301 272.456 139.224 272.583C139.147 272.71 139.105 272.856 139.103 273.005V278.239C139.103 278.357 139.137 278.472 139.199 278.572C139.262 278.672 139.351 278.752 139.457 278.804C139.562 278.863 139.681 278.895 139.802 278.895C139.923 278.895 140.042 278.863 140.148 278.804L141.918 277.784C142.196 277.626 142.428 277.399 142.59 277.123C142.753 276.848 142.841 276.536 142.845 276.216V273.687V273.662Z" fill="#546E79"/>
<path fill-rule="evenodd" clip-rule="evenodd" d="M138.69 279.714L134.677 282.032L135.166 282.319C135.345 282.418 135.547 282.47 135.752 282.47C135.957 282.47 136.159 282.418 136.338 282.319L139.162 280.683C139.223 280.648 139.274 280.597 139.309 280.535C139.344 280.474 139.363 280.404 139.363 280.333C139.363 280.263 139.344 280.193 139.309 280.132C139.274 280.07 139.223 280.019 139.162 279.984L138.69 279.714Z" fill="#3C393C"/>
<path fill-rule="evenodd" clip-rule="evenodd" d="M139.077 276.469C139.073 276.123 138.977 275.784 138.801 275.487C138.625 275.189 138.374 274.943 138.073 274.772C137.772 274.602 137.432 274.513 137.086 274.515C136.74 274.517 136.401 274.609 136.102 274.783L135.773 274.968C135.64 275.043 135.53 275.152 135.455 275.284C135.379 275.416 135.341 275.566 135.343 275.719V281.189C135.342 281.312 135.373 281.433 135.434 281.539C135.495 281.646 135.583 281.735 135.689 281.796C135.793 281.858 135.913 281.891 136.034 281.891C136.156 281.891 136.276 281.858 136.38 281.796L138.15 280.776C138.431 280.611 138.664 280.376 138.827 280.094C138.989 279.811 139.075 279.492 139.077 279.166V276.469Z" fill="#BCBEBE"/>
<path fill-rule="evenodd" clip-rule="evenodd" d="M139.077 275.179C139.077 275.002 138.706 275.002 138.091 275.179C137.399 275.385 136.731 275.668 136.102 276.022L135.773 276.216C135.503 276.368 135.343 276.511 135.343 276.587V277.969C135.343 278.037 135.47 278.037 135.689 277.969C135.929 277.893 136.161 277.791 136.38 277.666L138.15 276.646C138.723 276.317 139.077 276.005 139.077 275.803V275.129V275.179Z" fill="white"/>
<path fill-rule="evenodd" clip-rule="evenodd" d="M136.397 277.388C136.396 277.051 136.303 276.722 136.127 276.435C135.952 276.148 135.701 275.915 135.402 275.761C135.094 275.603 134.752 275.524 134.405 275.533C134.059 275.542 133.721 275.638 133.422 275.811L133.084 276.005C132.955 276.078 132.848 276.183 132.772 276.31C132.697 276.437 132.656 276.582 132.654 276.73V281.965C132.655 282.082 132.688 282.198 132.751 282.297C132.814 282.397 132.903 282.477 133.008 282.529C133.114 282.588 133.233 282.618 133.354 282.618C133.475 282.618 133.594 282.588 133.7 282.529L135.47 281.509C135.748 281.352 135.98 281.124 136.142 280.849C136.305 280.574 136.393 280.261 136.397 279.942V277.413V277.388Z" fill="#546E79"/>
<path fill-rule="evenodd" clip-rule="evenodd" d="M132.241 283.431L128.229 285.741L128.718 286.019C128.896 286.122 129.098 286.177 129.304 286.177C129.51 286.177 129.712 286.122 129.89 286.019L132.713 284.392C132.775 284.355 132.825 284.303 132.86 284.241C132.895 284.179 132.914 284.109 132.914 284.038C132.914 283.967 132.895 283.897 132.86 283.835C132.825 283.773 132.775 283.721 132.713 283.684L132.241 283.414V283.431Z" fill="#3C393C"/>
<path fill-rule="evenodd" clip-rule="evenodd" d="M132.654 280.178C132.647 279.833 132.551 279.496 132.374 279.2C132.197 278.903 131.946 278.658 131.646 278.488C131.346 278.318 131.007 278.229 130.662 278.23C130.317 278.23 129.979 278.321 129.679 278.492L129.35 278.686C129.216 278.759 129.104 278.868 129.027 279C128.95 279.132 128.91 279.283 128.912 279.436V284.898C128.912 285.021 128.945 285.142 129.007 285.249C129.069 285.355 129.159 285.444 129.266 285.505C129.372 285.563 129.491 285.594 129.612 285.594C129.732 285.594 129.851 285.563 129.957 285.505L131.727 284.476C132.01 284.313 132.244 284.079 132.407 283.796C132.57 283.513 132.655 283.193 132.654 282.866V280.178V280.178Z" fill="#BCBEBE"/>
<path fill-rule="evenodd" clip-rule="evenodd" d="M132.654 278.905C132.654 278.728 132.275 278.719 131.66 278.905C130.971 279.112 130.306 279.395 129.679 279.748L129.35 279.933C129.081 280.093 128.912 280.237 128.912 280.312V281.695C128.912 281.762 129.047 281.762 129.266 281.695C129.508 281.625 129.74 281.526 129.957 281.4L131.727 280.38C132.3 280.043 132.654 279.739 132.654 279.537V278.863V278.905Z" fill="white"/>
<path fill-rule="evenodd" clip-rule="evenodd" d="M129.949 281.105C129.946 280.77 129.852 280.442 129.677 280.157C129.502 279.872 129.252 279.64 128.954 279.486C128.646 279.328 128.303 279.25 127.957 279.259C127.611 279.267 127.273 279.363 126.973 279.537L126.636 279.731C126.507 279.803 126.4 279.908 126.324 280.036C126.249 280.163 126.208 280.308 126.206 280.456V285.682C126.207 285.799 126.24 285.915 126.301 286.015C126.362 286.116 126.448 286.199 126.552 286.255C126.66 286.311 126.78 286.34 126.902 286.34C127.024 286.34 127.143 286.311 127.252 286.255L129.022 285.226C129.3 285.071 129.532 284.845 129.694 284.571C129.857 284.297 129.945 283.986 129.949 283.667V281.138V281.105Z" fill="#546E79"/>
<path fill-rule="evenodd" clip-rule="evenodd" d="M125.793 287.157L121.773 289.475L122.27 289.761C122.448 289.865 122.65 289.92 122.856 289.92C123.062 289.92 123.264 289.865 123.442 289.761L126.265 288.134C126.326 288.098 126.377 288.046 126.412 287.984C126.447 287.922 126.466 287.852 126.466 287.78C126.466 287.709 126.447 287.639 126.412 287.577C126.377 287.515 126.326 287.463 126.265 287.426L125.793 287.157V287.157Z" fill="#3C393C"/>
<path fill-rule="evenodd" clip-rule="evenodd" d="M126.206 283.895C126.199 283.55 126.102 283.213 125.926 282.917C125.749 282.621 125.498 282.376 125.198 282.206C124.898 282.036 124.559 281.946 124.214 281.947C123.869 281.948 123.53 282.038 123.231 282.209L122.894 282.403C122.762 282.477 122.653 282.584 122.577 282.715C122.502 282.845 122.463 282.994 122.464 283.145V288.623C122.464 288.746 122.497 288.866 122.559 288.971C122.621 289.076 122.711 289.163 122.818 289.222C122.922 289.284 123.042 289.317 123.163 289.317C123.285 289.317 123.405 289.284 123.509 289.222L125.279 288.202C125.562 288.039 125.796 287.804 125.959 287.521C126.122 287.239 126.207 286.918 126.206 286.592V283.928V283.895Z" fill="#BCBEBE"/>
<path fill-rule="evenodd" clip-rule="evenodd" d="M126.206 282.63C126.206 282.445 125.827 282.445 125.212 282.63C124.521 282.833 123.856 283.115 123.231 283.473L122.894 283.659C122.632 283.81 122.464 283.954 122.464 284.038V285.42C122.464 285.479 122.599 285.479 122.818 285.42C123.058 285.346 123.289 285.247 123.509 285.125L125.279 284.097C125.852 283.768 126.206 283.456 126.206 283.254V282.588V282.63Z" fill="white"/>
<path fill-rule="evenodd" clip-rule="evenodd" d="M123.501 284.83C123.499 284.495 123.405 284.167 123.23 283.882C123.054 283.597 122.804 283.365 122.506 283.212C122.197 283.054 121.852 282.975 121.505 282.984C121.158 282.993 120.818 283.089 120.517 283.263L120.188 283.456C120.059 283.529 119.951 283.634 119.876 283.761C119.801 283.889 119.76 284.033 119.758 284.181V289.407C119.759 289.524 119.791 289.638 119.852 289.738C119.913 289.837 120 289.918 120.104 289.972C120.211 290.032 120.331 290.063 120.454 290.063C120.576 290.063 120.696 290.032 120.803 289.972L122.573 288.952C122.851 288.797 123.083 288.571 123.246 288.297C123.409 288.023 123.497 287.711 123.501 287.393V284.864V284.83Z" fill="#546E79"/>
<path fill-rule="evenodd" clip-rule="evenodd" d="M148.417 237.055L102.959 263.294L111.995 268.512L157.444 242.273L148.417 237.055Z" fill="#BCBEBE"/>
<path fill-rule="evenodd" clip-rule="evenodd" d="M143.368 252.531L113.841 269.582L117.592 271.74L147.119 254.697L143.368 252.531Z" fill="#BCBEBE"/>
<path fill-rule="evenodd" clip-rule="evenodd" d="M251.494 190.106L245.771 193.41L249.522 195.576L255.245 192.272L251.494 190.106Z" fill="#BCBEBE"/>
<path fill-rule="evenodd" clip-rule="evenodd" d="M244.987 186.355L232.714 193.444L236.465 195.602L248.746 188.513L244.987 186.355Z" fill="#BCBEBE"/>
<path fill-rule="evenodd" clip-rule="evenodd" d="M238.488 182.596L215.359 195.956L219.102 198.122L242.239 184.762L238.488 182.596Z" fill="#BCBEBE"/>
<path fill-rule="evenodd" clip-rule="evenodd" d="M338.438 227.202L200.667 306.737V328.45L338.438 248.906V227.202Z" fill="#4D535D"/>
<path fill-rule="evenodd" clip-rule="evenodd" d="M338.615 249.007L200.667 328.652L210.588 334.376L348.536 254.739L338.615 249.007Z" fill="#626370"/>
<path fill-rule="evenodd" clip-rule="evenodd" d="M338.615 227.303L200.667 306.939L210.732 312.747L348.671 233.11L338.615 227.303Z" fill="#626370"/>
<path fill-rule="evenodd" clip-rule="evenodd" d="M348.536 233.026L210.765 312.57V334.274L348.536 254.739V233.026Z" fill="#4D535D"/>
<path fill-rule="evenodd" clip-rule="evenodd" d="M210.765 312.772L200.667 306.939V328.652L210.765 334.485V312.772Z" fill="#565F6C"/>
<path fill-rule="evenodd" clip-rule="evenodd" d="M211.92 301.823L205.025 305.801L211.92 309.788L218.815 305.801L211.92 301.823Z" fill="#4D535D"/>
<path fill-rule="evenodd" clip-rule="evenodd" d="M218.815 305.801L211.92 301.823V317.745L218.815 321.732V305.801Z" fill="#41444B"/>
<path fill-rule="evenodd" clip-rule="evenodd" d="M222.262 295.855L215.368 299.834L222.262 303.812L229.157 299.834L222.262 295.855Z" fill="#4D535D"/>
<path fill-rule="evenodd" clip-rule="evenodd" d="M229.157 299.834L222.262 295.855V311.778L229.157 315.756V299.834Z" fill="#41444B"/>
<path fill-rule="evenodd" clip-rule="evenodd" d="M232.605 289.879L225.71 293.858L232.605 297.845L239.5 293.858L232.605 289.879Z" fill="#4D535D"/>
<path fill-rule="evenodd" clip-rule="evenodd" d="M239.5 293.858L232.605 289.879V305.802L239.5 309.788V293.858Z" fill="#41444B"/>
<path fill-rule="evenodd" clip-rule="evenodd" d="M242.947 283.912L236.052 287.89L242.947 291.868L249.842 287.89L242.947 283.912Z" fill="#4D535D"/>
<path fill-rule="evenodd" clip-rule="evenodd" d="M249.842 287.89L242.947 283.912V299.834L249.842 303.812V287.89Z" fill="#41444B"/>
<path fill-rule="evenodd" clip-rule="evenodd" d="M253.289 277.935L246.394 281.922L253.289 285.901L260.184 281.922L253.289 277.935Z" fill="#4D535D"/>
<path fill-rule="evenodd" clip-rule="evenodd" d="M260.184 281.922L253.289 277.935V293.858L260.184 297.845V281.922Z" fill="#41444B"/>
<path fill-rule="evenodd" clip-rule="evenodd" d="M263.632 271.968L256.737 275.946L263.632 279.933L270.526 275.946L263.632 271.968Z" fill="#4D535D"/>
<path fill-rule="evenodd" clip-rule="evenodd" d="M270.526 275.946L263.632 271.968V287.89L270.526 291.868V275.946Z" fill="#41444B"/>
<path fill-rule="evenodd" clip-rule="evenodd" d="M273.974 265.992L267.079 269.979L273.974 273.957L280.869 269.979L273.974 265.992Z" fill="#4D535D"/>
<path fill-rule="evenodd" clip-rule="evenodd" d="M280.869 269.979L273.974 265.992V281.922L280.869 285.901V269.979Z" fill="#41444B"/>
<path fill-rule="evenodd" clip-rule="evenodd" d="M284.316 260.024L277.421 264.002L284.316 267.989L291.211 264.002L284.316 260.024Z" fill="#4D535D"/>
<path fill-rule="evenodd" clip-rule="evenodd" d="M291.211 264.002L284.316 260.024V275.946L291.211 279.933V264.002Z" fill="#41444B"/>
<path fill-rule="evenodd" clip-rule="evenodd" d="M294.658 254.056L287.764 258.035L294.658 262.013L301.553 258.035L294.658 254.056Z" fill="#4D535D"/>
<path fill-rule="evenodd" clip-rule="evenodd" d="M301.553 258.035L294.658 254.056V269.979L301.553 273.957V258.035Z" fill="#41444B"/>
<path fill-rule="evenodd" clip-rule="evenodd" d="M305.001 248.08L298.106 252.059L305.001 256.046L311.896 252.059L305.001 248.08Z" fill="#4D535D"/>
<path fill-rule="evenodd" clip-rule="evenodd" d="M311.896 252.059L305.001 248.08V264.002L311.896 267.989V252.059Z" fill="#41444B"/>
<path fill-rule="evenodd" clip-rule="evenodd" d="M315.343 242.113L308.448 246.091L315.343 250.069L322.238 246.091L315.343 242.113Z" fill="#4D535D"/>
<path fill-rule="evenodd" clip-rule="evenodd" d="M322.238 246.091L315.343 242.113V258.035L322.238 262.013V246.091Z" fill="#41444B"/>
<path fill-rule="evenodd" clip-rule="evenodd" d="M325.685 236.136L318.79 240.123L325.685 244.102L332.58 240.123L325.685 236.136Z" fill="#4D535D"/>
<path fill-rule="evenodd" clip-rule="evenodd" d="M332.58 240.123L325.685 236.136V252.059L332.58 256.046V240.123Z" fill="#41444B"/>
<path fill-rule="evenodd" clip-rule="evenodd" d="M336.028 230.169L329.133 234.147L336.028 238.126L342.931 234.147L336.028 230.169Z" fill="#4D535D"/>
<path fill-rule="evenodd" clip-rule="evenodd" d="M342.931 234.147L336.028 230.169V246.091L342.931 250.069V234.147Z" fill="#41444B"/>
<path fill-rule="evenodd" clip-rule="evenodd" d="M347.626 232.504L209.863 312.047V333.752L347.626 254.216V232.504Z" fill="#4D535D"/>
<path fill-rule="evenodd" clip-rule="evenodd" d="M347.803 254.318L209.863 333.963L219.784 339.686L357.724 260.049L347.803 254.318Z" fill="#626370"/>
<path fill-rule="evenodd" clip-rule="evenodd" d="M347.803 232.605L209.863 312.25L219.928 318.057L357.867 238.421L347.803 232.605Z" fill="#626370"/>
<path fill-rule="evenodd" clip-rule="evenodd" d="M357.724 238.336L219.961 317.872V339.585L357.724 260.049V238.336Z" fill="#4D535D"/>
<path fill-rule="evenodd" clip-rule="evenodd" d="M219.961 318.082L209.863 312.25V333.963L219.961 339.787V318.082Z" fill="#565F6C"/>
<path fill-rule="evenodd" clip-rule="evenodd" d="M221.108 307.133L214.213 311.112L221.108 315.09L228.002 311.112L221.108 307.133Z" fill="#4D535D"/>
<path fill-rule="evenodd" clip-rule="evenodd" d="M228.003 311.112L221.108 307.133V323.056L228.003 327.034V311.112Z" fill="#41444B"/>
<path fill-rule="evenodd" clip-rule="evenodd" d="M231.458 301.157L224.555 305.144L231.458 309.122L238.345 305.144L231.458 301.157Z" fill="#4D535D"/>
<path fill-rule="evenodd" clip-rule="evenodd" d="M238.345 305.144L231.458 301.157V317.088L238.345 321.066V305.144Z" fill="#41444B"/>
<path fill-rule="evenodd" clip-rule="evenodd" d="M241.801 295.189L234.906 299.168L241.801 303.155L248.695 299.168L241.801 295.189Z" fill="#4D535D"/>
<path fill-rule="evenodd" clip-rule="evenodd" d="M248.696 299.168L241.801 295.189V311.112L248.696 315.09V299.168Z" fill="#41444B"/>
<path fill-rule="evenodd" clip-rule="evenodd" d="M252.143 289.222L245.24 293.2L252.143 297.179L259.038 293.2L252.143 289.222Z" fill="#4D535D"/>
<path fill-rule="evenodd" clip-rule="evenodd" d="M259.038 293.2L252.143 289.222V305.144L259.038 309.122V293.2Z" fill="#41444B"/>
<path fill-rule="evenodd" clip-rule="evenodd" d="M262.485 283.246L255.59 287.224L262.485 291.211L269.38 287.224L262.485 283.246Z" fill="#4D535D"/>
<path fill-rule="evenodd" clip-rule="evenodd" d="M269.38 287.224L262.485 283.246V299.168L269.38 303.155V287.224Z" fill="#41444B"/>
<path fill-rule="evenodd" clip-rule="evenodd" d="M272.828 277.278L265.933 281.256L272.828 285.235L279.722 281.256L272.828 277.278Z" fill="#4D535D"/>
<path fill-rule="evenodd" clip-rule="evenodd" d="M279.722 281.256L272.828 277.278V293.2L279.722 297.179V281.256Z" fill="#41444B"/>
<path fill-rule="evenodd" clip-rule="evenodd" d="M283.17 271.302L276.275 275.289L283.17 279.267L290.065 275.289L283.17 271.302Z" fill="#4D535D"/>
<path fill-rule="evenodd" clip-rule="evenodd" d="M290.065 275.289L283.17 271.302V287.224L290.065 291.211V275.289Z" fill="#41444B"/>
<path fill-rule="evenodd" clip-rule="evenodd" d="M293.512 265.334L286.617 269.313L293.512 273.291L300.407 269.313L293.512 265.334Z" fill="#4D535D"/>
<path fill-rule="evenodd" clip-rule="evenodd" d="M300.407 269.313L293.512 265.334V281.256L300.407 285.235V269.313Z" fill="#41444B"/>
<path fill-rule="evenodd" clip-rule="evenodd" d="M303.854 259.358L296.96 263.345L303.854 267.323L310.749 263.345L303.854 259.358Z" fill="#4D535D"/>
<path fill-rule="evenodd" clip-rule="evenodd" d="M310.749 263.345L303.854 259.358V275.289L310.749 279.267V263.345Z" fill="#41444B"/>
<path fill-rule="evenodd" clip-rule="evenodd" d="M314.197 253.39L307.302 257.369L314.197 261.347L321.092 257.369L314.197 253.39Z" fill="#4D535D"/>
<path fill-rule="evenodd" clip-rule="evenodd" d="M321.092 257.369L314.197 253.39V269.313L321.092 273.291V257.369Z" fill="#41444B"/>
<path fill-rule="evenodd" clip-rule="evenodd" d="M324.539 247.414L317.644 251.401L324.539 255.38L331.434 251.401L324.539 247.414Z" fill="#4D535D"/>
<path fill-rule="evenodd" clip-rule="evenodd" d="M331.434 251.401L324.539 247.414V263.345L331.434 267.323V251.401Z" fill="#41444B"/>
<path fill-rule="evenodd" clip-rule="evenodd" d="M334.881 241.447L327.986 245.425L334.881 249.412L341.776 245.425L334.881 241.447Z" fill="#4D535D"/>
<path fill-rule="evenodd" clip-rule="evenodd" d="M341.776 245.425L334.881 241.447V257.369L341.776 261.347V245.425Z" fill="#41444B"/>
<path fill-rule="evenodd" clip-rule="evenodd" d="M345.224 235.479L338.329 239.457L345.224 243.436L352.118 239.457L345.224 235.479Z" fill="#4D535D"/>
<path fill-rule="evenodd" clip-rule="evenodd" d="M352.118 239.457L345.224 235.479V251.401L352.118 255.38V239.457Z" fill="#41444B"/>
<path fill-rule="evenodd" clip-rule="evenodd" d="M142.457 291.371L123.846 302.118L143.587 313.514L162.206 302.767L142.457 291.371Z" fill="#626370"/>
<path fill-rule="evenodd" clip-rule="evenodd" d="M142.457 289.331L123.846 300.078L143.587 311.474L162.206 300.727L142.457 289.331Z" fill="#757B81"/>
<path fill-rule="evenodd" clip-rule="evenodd" d="M162.206 300.727L143.62 311.457V316.599L162.206 305.869V300.727Z" fill="#41444B"/>
<path fill-rule="evenodd" clip-rule="evenodd" d="M143.621 311.491L123.846 300.078V305.186L143.621 316.599V311.491Z" fill="#4C525C"/>
<path fill-rule="evenodd" clip-rule="evenodd" d="M155.227 298.991V287.679C155.248 287.501 155.23 287.32 155.176 287.149C155.122 286.978 155.033 286.82 154.913 286.686C154.794 286.552 154.647 286.445 154.484 286.372C154.32 286.298 154.142 286.26 153.963 286.26C153.783 286.26 153.606 286.298 153.442 286.372C153.278 286.445 153.132 286.552 153.013 286.686C152.893 286.82 152.803 286.978 152.749 287.149C152.695 287.32 152.678 287.501 152.698 287.679V298.991C152.678 299.169 152.695 299.35 152.749 299.521C152.803 299.692 152.893 299.85 153.013 299.984C153.132 300.118 153.278 300.225 153.442 300.299C153.606 300.372 153.783 300.41 153.963 300.41C154.142 300.41 154.32 300.372 154.484 300.299C154.647 300.225 154.794 300.118 154.913 299.984C155.033 299.85 155.122 299.692 155.176 299.521C155.23 299.35 155.248 299.169 155.227 298.991V298.991Z" fill="#BCBEBE"/>
<path fill-rule="evenodd" clip-rule="evenodd" d="M150.271 296.134V284.813C150.235 284.503 150.086 284.217 149.853 284.009C149.62 283.802 149.319 283.687 149.007 283.687C148.694 283.687 148.393 283.802 148.16 284.009C147.927 284.217 147.778 284.503 147.742 284.813V296.134C147.722 296.312 147.739 296.492 147.793 296.664C147.847 296.835 147.937 296.992 148.056 297.126C148.176 297.26 148.322 297.368 148.486 297.441C148.65 297.515 148.827 297.553 149.007 297.553C149.186 297.553 149.364 297.515 149.527 297.441C149.691 297.368 149.837 297.26 149.957 297.126C150.076 296.992 150.166 296.835 150.22 296.664C150.274 296.492 150.292 296.312 150.271 296.134Z" fill="#BCBEBE"/>
<path fill-rule="evenodd" clip-rule="evenodd" d="M145.323 293.276V281.956C145.287 281.646 145.139 281.36 144.905 281.152C144.672 280.944 144.371 280.83 144.059 280.83C143.747 280.83 143.445 280.944 143.212 281.152C142.979 281.36 142.83 281.646 142.794 281.956V293.276C142.83 293.586 142.979 293.872 143.212 294.08C143.445 294.288 143.747 294.403 144.059 294.403C144.371 294.403 144.672 294.288 144.905 294.08C145.139 293.872 145.287 293.586 145.323 293.276V293.276Z" fill="#BCBEBE"/>
<path fill-rule="evenodd" clip-rule="evenodd" d="M149.841 302.101V290.798C149.862 290.62 149.844 290.439 149.79 290.268C149.736 290.097 149.646 289.939 149.527 289.805C149.408 289.671 149.261 289.564 149.097 289.49C148.934 289.417 148.756 289.379 148.577 289.379C148.397 289.379 148.22 289.417 148.056 289.49C147.892 289.564 147.746 289.671 147.626 289.805C147.507 289.939 147.417 290.097 147.363 290.268C147.309 290.439 147.292 290.62 147.312 290.798V302.11C147.292 302.288 147.309 302.469 147.363 302.64C147.417 302.811 147.507 302.969 147.626 303.103C147.746 303.237 147.892 303.344 148.056 303.417C148.22 303.491 148.397 303.529 148.577 303.529C148.756 303.529 148.934 303.491 149.097 303.417C149.261 303.344 149.408 303.237 149.527 303.103C149.646 302.969 149.736 302.811 149.79 302.64C149.844 302.469 149.862 302.288 149.841 302.11V302.101Z" fill="#D3D6D8"/>
<path fill-rule="evenodd" clip-rule="evenodd" d="M144.893 299.227V287.924C144.857 287.614 144.709 287.327 144.476 287.12C144.243 286.912 143.941 286.797 143.629 286.797C143.317 286.797 143.015 286.912 142.782 287.12C142.549 287.327 142.4 287.614 142.365 287.924V299.227C142.344 299.405 142.361 299.586 142.415 299.757C142.47 299.928 142.559 300.086 142.679 300.22C142.798 300.354 142.944 300.461 143.108 300.535C143.272 300.608 143.449 300.646 143.629 300.646C143.808 300.646 143.986 300.608 144.15 300.535C144.313 300.461 144.46 300.354 144.579 300.22C144.699 300.086 144.788 299.928 144.842 299.757C144.897 299.586 144.914 299.405 144.893 299.227Z" fill="#D3D6D8"/>
<path fill-rule="evenodd" clip-rule="evenodd" d="M139.92 296.378V285.066C139.884 284.756 139.736 284.47 139.503 284.262C139.269 284.055 138.968 283.94 138.656 283.94C138.344 283.94 138.042 284.055 137.809 284.262C137.576 284.47 137.427 284.756 137.392 285.066V296.378C137.371 296.556 137.388 296.737 137.442 296.908C137.497 297.079 137.586 297.237 137.706 297.371C137.825 297.505 137.971 297.612 138.135 297.686C138.299 297.759 138.476 297.797 138.656 297.797C138.835 297.797 139.013 297.759 139.177 297.686C139.34 297.612 139.487 297.505 139.606 297.371C139.726 297.237 139.815 297.079 139.869 296.908C139.924 296.737 139.941 296.556 139.92 296.378V296.378Z" fill="#D3D6D8"/>
<path fill-rule="evenodd" clip-rule="evenodd" d="M144.463 305.211V293.9C144.484 293.722 144.467 293.541 144.413 293.37C144.358 293.199 144.269 293.041 144.149 292.907C144.03 292.773 143.884 292.666 143.72 292.592C143.556 292.519 143.379 292.481 143.199 292.481C143.02 292.481 142.842 292.519 142.678 292.592C142.515 292.666 142.368 292.773 142.249 292.907C142.129 293.041 142.04 293.199 141.986 293.37C141.931 293.541 141.914 293.722 141.935 293.9V305.211C141.971 305.522 142.119 305.808 142.352 306.016C142.585 306.223 142.887 306.338 143.199 306.338C143.511 306.338 143.813 306.223 144.046 306.016C144.279 305.808 144.427 305.522 144.463 305.211V305.211Z" fill="#BCBEBE"/>
<path fill-rule="evenodd" clip-rule="evenodd" d="M139.507 302.354V291.034C139.471 290.724 139.323 290.438 139.09 290.23C138.856 290.022 138.555 289.907 138.243 289.907C137.931 289.907 137.629 290.022 137.396 290.23C137.163 290.438 137.014 290.724 136.979 291.034V302.354C137.014 302.664 137.163 302.95 137.396 303.158C137.629 303.366 137.931 303.481 138.243 303.481C138.555 303.481 138.856 303.366 139.09 303.158C139.323 302.95 139.471 302.664 139.507 302.354V302.354Z" fill="#BCBEBE"/>
<path fill-rule="evenodd" clip-rule="evenodd" d="M134.551 299.488V288.177C134.515 287.866 134.366 287.58 134.133 287.373C133.9 287.165 133.599 287.05 133.287 287.05C132.974 287.05 132.673 287.165 132.44 287.373C132.207 287.58 132.058 287.866 132.022 288.177V299.488C132.002 299.667 132.019 299.847 132.073 300.018C132.127 300.189 132.217 300.347 132.336 300.481C132.456 300.615 132.602 300.722 132.766 300.796C132.93 300.869 133.107 300.907 133.287 300.907C133.466 300.907 133.644 300.869 133.807 300.796C133.971 300.722 134.118 300.615 134.237 300.481C134.356 300.347 134.446 300.189 134.5 300.018C134.554 299.847 134.572 299.667 134.551 299.488Z" fill="#BCBEBE"/>
<path fill-rule="evenodd" clip-rule="evenodd" d="M419.938 231.416L217.112 348.519V355.423L419.938 238.32V231.416Z" fill="#004D58"/>
<path fill-rule="evenodd" clip-rule="evenodd" d="M158.455 337.983L158.481 331.055L187.063 331.088L186.987 338.017L158.455 337.983Z" fill="#004D58"/>
<path fill-rule="evenodd" clip-rule="evenodd" d="M158.455 331.097L39.4474 262.384V269.296L158.455 338V331.097Z" fill="#006372"/>
<path fill-rule="evenodd" clip-rule="evenodd" d="M273.864 198.282C275.526 199.124 277.362 199.563 279.225 199.563C281.088 199.563 282.924 199.124 284.586 198.282L305.97 185.917C307.732 184.897 308.718 183.515 308.718 182.073C308.718 180.632 307.732 179.25 305.97 178.238L305.085 177.724C303.398 176.868 301.532 176.422 299.64 176.422C297.748 176.422 295.882 176.868 294.195 177.724L273.097 189.921C269.313 192.112 269.313 195.652 273.097 197.844L273.856 198.282H273.864Z" fill="#D7DBDC"/>
<path d="M192.095 275.179L195.298 273.325L209.155 281.332C211.016 282.282 212.685 283.568 214.078 285.125C214.497 285.638 214.764 286.258 214.85 286.914C214.937 287.571 214.839 288.239 214.567 288.843C214.019 290.191 212.578 291.531 210.243 292.88C208.163 294.116 205.879 294.972 203.5 295.409C201.362 295.8 199.167 295.745 197.051 295.249C194.61 294.611 192.273 293.623 190.114 292.315L176.249 284.308L179.452 282.462L193.301 290.452C194.92 291.456 196.666 292.238 198.493 292.779C199.9 293.126 201.364 293.177 202.792 292.931C204.305 292.681 205.759 292.156 207.082 291.38C209.434 290.023 210.588 288.75 210.529 287.553C210.47 286.356 208.953 284.898 205.944 283.212L192.095 275.221V275.179Z" fill="white"/>
<path d="M224.589 284.122L200.592 270.265L203.879 268.369L235.428 271.917L216.59 261.035L219.658 259.265L243.655 273.114L240.368 275.011L208.801 271.462L227.657 282.352L224.589 284.122Z" fill="white"/>
<path d="M236.372 263.825C232.394 261.522 230.354 259.1 230.253 256.56C230.16 254.031 231.812 251.755 235.226 249.817C237.586 248.499 240.174 247.641 242.854 247.288C248.504 246.443 254.274 247.517 259.24 250.339C261.312 251.398 263.06 252.996 264.297 254.967C264.755 255.705 265.01 256.552 265.037 257.42C265.063 258.289 264.861 259.149 264.449 259.914C263.422 261.713 261.897 263.177 260.058 264.129C257.667 265.483 255.036 266.359 252.312 266.708C249.47 267.114 246.58 267.037 243.765 266.481C241.178 266.005 238.686 265.108 236.389 263.825H236.372ZM239.744 261.946C242.531 263.589 245.697 264.48 248.932 264.533C251.869 264.67 254.786 263.99 257.36 262.57C259.771 261.179 260.909 259.552 260.791 257.681C260.673 255.81 259.055 253.98 255.97 252.202C254.07 251.095 252.008 250.293 249.859 249.825C247.786 249.371 245.65 249.279 243.545 249.555C241.606 249.787 239.73 250.397 238.024 251.351C235.777 252.654 234.6 254.228 234.493 256.071C234.386 257.914 236.148 259.881 239.778 261.971L239.744 261.946Z" fill="white"/>
<path fill-rule="evenodd" clip-rule="evenodd" d="M236.01 159.054C238.867 158.753 241.749 159.301 244.296 160.63C248.063 162.805 248.063 166.336 244.296 168.511C241.75 169.842 238.866 170.387 236.01 170.079C237.892 169.949 239.723 169.414 241.379 168.511C245.147 166.336 245.147 162.805 241.379 160.63C239.722 159.728 237.892 159.191 236.01 159.054V159.054Z" fill="white"/>
<path fill-rule="evenodd" clip-rule="evenodd" d="M386.433 211.187C389.291 210.883 392.176 211.428 394.727 212.755C398.494 214.929 398.494 218.461 394.727 220.644C392.175 221.967 389.291 222.512 386.433 222.212C388.313 222.075 390.143 221.541 391.802 220.644C395.57 218.461 395.57 214.929 391.802 212.755C390.143 211.858 388.313 211.323 386.433 211.187V211.187Z" fill="white"/>
<path fill-rule="evenodd" clip-rule="evenodd" d="M217.466 169.733C220.323 169.431 223.206 169.979 225.752 171.31C229.528 173.484 229.528 177.016 225.752 179.191C223.206 180.522 220.322 181.067 217.466 180.758C219.348 180.63 221.18 180.095 222.836 179.191C226.603 177.016 226.603 173.484 222.836 171.31C221.179 170.406 219.348 169.869 217.466 169.733V169.733Z" fill="white"/>
</g>
<defs>
<clipPath id="clip0">
<rect width="472.02" height="472.02" fill="white"/>
</clipPath>
</defs>
</svg>
