<svg width="28" height="24" viewBox="0 0 28 24" fill="none" xmlns="http://www.w3.org/2000/svg">
    <path d="M26.3105 8.38725C25.6464 6.81533 24.6836 5.38719 23.4755 4.182C22.2703 2.9739 20.8422 2.01111 19.2703 1.347C17.6372 0.655971 15.9067 0.307503 14.12 0.307503C12.3334 0.307503 10.6028 0.655971 8.96977 1.347C7.39784 2.01111 5.9697 2.9739 4.76451 4.182C3.55642 5.38719 2.59363 6.81533 1.92951 8.38725C1.23848 10.0203 0.890015 11.7509 0.890015 13.5375C0.890015 17.4563 2.61169 21.1477 5.61206 23.6697L5.66227 23.711C5.83355 23.8528 6.04912 23.9325 6.27061 23.9325H21.9724C22.1939 23.9325 22.4094 23.8528 22.5807 23.711L22.6309 23.6697C25.6283 21.1477 27.35 17.4563 27.35 13.5375C27.35 11.7509 26.9986 10.0203 26.3105 8.38725ZM13.2341 3.85125C13.2341 3.72132 13.3404 3.615 13.4703 3.615H14.7697C14.8996 3.615 15.006 3.72132 15.006 3.85125V6.21375C15.006 6.34369 14.8996 6.45 14.7697 6.45H13.4703C13.3404 6.45 13.2341 6.34369 13.2341 6.21375V3.85125ZM6.97345 14.1872C6.97345 14.3171 6.86714 14.4234 6.7372 14.4234H4.3747C4.24476 14.4234 4.13845 14.3171 4.13845 14.1872V12.8878C4.13845 12.7579 4.24476 12.6516 4.3747 12.6516H6.7372C6.86714 12.6516 6.97345 12.7579 6.97345 12.8878V14.1872ZM9.65194 8.14805L8.73352 9.06647C8.68911 9.11044 8.62915 9.1351 8.56666 9.1351C8.50418 9.1351 8.44421 9.11044 8.39981 9.06647L6.72834 7.395C6.68438 7.3506 6.65971 7.29064 6.65971 7.22815C6.65971 7.16566 6.68438 7.1057 6.72834 7.0613L7.64676 6.14288C7.73831 6.05133 7.88892 6.05133 7.98047 6.14288L9.65194 7.81435C9.74348 7.90589 9.74348 8.0565 9.65194 8.14805ZM18.2485 10.6169L15.7531 13.1123C15.9007 13.6645 15.759 14.2758 15.3249 14.7099C15.1714 14.8637 14.9891 14.9856 14.7885 15.0689C14.5878 15.1521 14.3727 15.1949 14.1555 15.1949C13.9382 15.1949 13.7231 15.1521 13.5224 15.0689C13.3218 14.9856 13.1395 14.8637 12.986 14.7099C12.8323 14.5564 12.7103 14.3741 12.627 14.1735C12.5438 13.9728 12.501 13.7577 12.501 13.5405C12.501 13.3232 12.5438 13.1081 12.627 12.9074C12.7103 12.7068 12.8323 12.5245 12.986 12.371C13.1911 12.1653 13.4468 12.0174 13.7273 11.9423C14.0078 11.8671 14.3032 11.8673 14.5837 11.9428L17.079 9.44742C17.1706 9.35588 17.3212 9.35588 17.4128 9.44742L18.2485 10.2832C18.34 10.3747 18.34 10.5224 18.2485 10.6169ZM19.5183 9.06942L18.5999 8.151C18.5559 8.1066 18.5313 8.04664 18.5313 7.98415C18.5313 7.92166 18.5559 7.8617 18.5999 7.8173L20.2714 6.14583C20.3629 6.05428 20.5135 6.05428 20.6051 6.14583L21.5235 7.06425C21.615 7.1558 21.615 7.30641 21.5235 7.39796L19.852 9.06942C19.8076 9.11339 19.7477 9.13806 19.6852 9.13806C19.6227 9.13806 19.5627 9.11339 19.5183 9.06942ZM23.9835 14.1872C23.9835 14.3171 23.8771 14.4234 23.7472 14.4234H21.3847C21.2548 14.4234 21.1485 14.3171 21.1485 14.1872V12.8878C21.1485 12.7579 21.2548 12.6516 21.3847 12.6516H23.7472C23.8771 12.6516 23.9835 12.7579 23.9835 12.8878V14.1872Z" fill="#2D9AFF"/>
</svg>
