<svg width="31" height="31" viewBox="0 0 31 31" fill="none" xmlns="http://www.w3.org/2000/svg">
    <path fill-rule="evenodd" clip-rule="evenodd" d="M15.84 0.879997C7.48617 0.879997 0.719971 7.6462 0.719971 16C0.719971 22.6906 5.04807 28.3417 11.0583 30.3451C11.8143 30.4774 12.0978 30.0238 12.0978 29.6269C12.0978 29.2678 12.0789 28.0771 12.0789 26.8108C8.27997 27.5101 7.29717 25.8847 6.99477 25.0342C6.82467 24.5995 6.08757 23.2576 5.44497 22.8985C4.91577 22.615 4.15977 21.9157 5.42607 21.8968C6.61677 21.8779 7.46727 22.993 7.75077 23.4466C9.11157 25.7335 11.2851 25.0909 12.1545 24.694C12.2868 23.7112 12.6837 23.0497 13.1184 22.6717C9.75417 22.2937 6.23877 20.9896 6.23877 15.2062C6.23877 13.5619 6.82467 12.2011 7.78857 11.1427C7.63737 10.7647 7.10817 9.2149 7.93977 7.1359C7.93977 7.1359 9.20607 6.739 12.0978 8.6857C13.3074 8.3455 14.5926 8.1754 15.8778 8.1754C17.163 8.1754 18.4482 8.3455 19.6578 8.6857C22.5495 6.7201 23.8158 7.1359 23.8158 7.1359C24.6474 9.2149 24.1182 10.7647 23.967 11.1427C24.9309 12.2011 25.5168 13.543 25.5168 15.2062C25.5168 21.0085 21.9825 22.2937 18.6183 22.6717C19.1664 23.1442 19.6389 24.0514 19.6389 25.4689C19.6389 27.4912 19.62 29.1166 19.62 29.6269C19.62 30.0238 19.9035 30.4963 20.6595 30.3451C23.661 29.3317 26.2692 27.4026 28.117 24.8293C29.9648 22.256 30.9591 19.168 30.96 16C30.96 7.6462 24.1938 0.879997 15.84 0.879997Z" fill="#7D2DFF"/>
</svg>
