<svg width="307" height="346" viewBox="0 0 307 346" fill="none" xmlns="http://www.w3.org/2000/svg">
<g clip-path="url(#clip0)">
<path d="M168.197 320.555C163.669 318.193 158.648 316.934 153.541 316.879C148.435 316.825 143.388 317.977 138.81 320.242C136.971 321.002 135.396 322.288 134.284 323.939C133.172 325.59 132.571 327.533 132.558 329.524C134.746 345.534 153.764 348.924 165.071 342.666C167.498 341.388 169.578 339.539 171.131 337.276C172.683 335.014 173.661 332.407 173.981 329.681C174.023 327.759 173.497 325.867 172.468 324.243C171.439 322.619 169.953 321.336 168.197 320.555V320.555Z" fill="#262628"/>
<path d="M181.745 324.362C172.775 328.824 162.878 331.099 152.862 330.999C142.846 330.9 132.995 328.428 124.116 323.788C120.918 322.284 118.171 319.965 116.15 317.064C114.129 314.163 112.905 310.781 112.601 307.257C112.641 313.074 114.237 318.773 117.225 323.762C120.212 328.751 124.481 332.848 129.588 335.626C136.651 339.711 144.646 341.909 152.804 342.01C160.961 342.11 169.007 340.109 176.169 336.199C181.456 333.512 185.915 329.44 189.071 324.417C192.228 319.393 193.963 313.607 194.094 307.674C194.094 313.619 189.977 319.773 181.745 324.362Z" fill="#68686B"/>
<path d="M184.558 284.155C175.079 279.196 164.561 276.554 153.865 276.445C143.17 276.336 132.6 278.764 123.022 283.53C105.828 293.229 105.411 309.187 122.189 319.199C131.661 324.15 142.17 326.788 152.856 326.896C163.541 327.005 174.101 324.582 183.673 319.825C200.919 310.125 201.284 294.168 184.558 284.155ZM181.745 318.678C172.784 323.14 162.895 325.414 152.888 325.315C142.88 325.215 133.038 322.744 124.169 318.104C108.537 308.717 108.85 293.751 124.95 284.677C133.92 280.214 143.817 277.94 153.833 278.039C163.849 278.139 173.699 280.61 182.578 285.251C198.262 294.637 197.897 309.604 181.745 318.678Z" fill="url(#paint0_linear)"/>
<path d="M185.027 284.156C162.101 269.867 116.092 275.655 109.214 298.601C100.982 326.239 149.283 343.552 184.089 325.509C205.14 312.889 200.919 294.012 185.027 284.156ZM183.673 319.825C174.101 324.582 163.541 327.005 152.856 326.896C142.17 326.788 131.661 324.15 122.189 319.199C105.411 309.187 105.828 293.125 123.022 283.53C132.6 278.764 143.17 276.336 153.865 276.445C164.561 276.554 175.079 279.196 184.558 284.156C201.284 294.168 200.919 310.125 183.673 319.825Z" fill="url(#paint1_linear)"/>
<path d="M181.797 313.254C172.835 317.749 162.937 320.06 152.913 319.996C142.888 319.933 133.021 317.498 124.116 312.889C120.932 311.394 118.194 309.091 116.174 306.21C114.154 303.328 112.923 299.968 112.601 296.462V301.677C112.938 305.185 114.181 308.545 116.21 311.425C118.238 314.305 120.981 316.607 124.169 318.104C133.038 322.744 142.88 325.215 152.888 325.315C162.895 325.414 172.784 323.14 181.745 318.678C189.925 314.089 194.041 308.248 194.094 301.834V296.619C194.094 302.46 189.977 308.665 181.797 313.254Z" fill="#68686B"/>
<path d="M184.611 273.048C175.131 268.088 164.613 265.446 153.918 265.337C143.222 265.229 132.652 267.656 123.074 272.422C105.828 282.122 105.463 298.079 122.189 308.092C131.668 313.051 142.186 315.693 152.882 315.802C163.577 315.911 174.147 313.483 183.725 308.717C200.919 299.018 201.336 283.06 184.611 273.048ZM181.849 307.674C172.861 312.142 162.943 314.415 152.908 314.306C142.872 314.197 133.006 311.71 124.117 307.049C108.485 297.662 108.798 282.695 124.95 273.622C133.938 269.158 143.852 266.883 153.885 266.983C163.918 267.083 173.785 269.554 182.683 274.195C198.366 283.53 198.002 298.496 181.849 307.674Z" fill="url(#paint2_linear)"/>
<path d="M185.027 273.048C162.153 258.812 116.092 264.6 109.267 287.545C101.034 315.132 149.283 332.497 184.142 314.454C205.192 301.573 200.971 282.956 185.027 273.048ZM183.725 308.717C174.147 313.483 163.577 315.911 152.882 315.802C142.186 315.693 131.668 313.051 122.189 308.092C105.463 298.079 105.828 282.017 123.074 272.422C132.652 267.656 143.222 265.229 153.918 265.337C164.613 265.446 175.131 268.088 184.61 273.048C201.336 283.06 200.919 299.018 183.725 308.717Z" fill="url(#paint3_linear)"/>
<path d="M181.849 302.459C172.87 306.923 162.964 309.197 152.94 309.098C142.915 308.998 133.057 306.527 124.169 301.886C120.953 300.385 118.191 298.061 116.16 295.149C114.129 292.237 112.901 288.841 112.601 285.303V290.518C112.889 294.046 114.107 297.434 116.13 300.338C118.153 303.242 120.908 305.558 124.116 307.049C133.006 311.71 142.872 314.197 152.908 314.306C162.943 314.415 172.861 312.142 181.849 307.674C190.081 303.033 194.198 296.88 194.198 290.726V285.511C193.818 289.176 192.476 292.675 190.307 295.652C188.138 298.629 185.219 300.978 181.849 302.459Z" fill="#68686B"/>
<path d="M184.611 261.993C175.138 257.042 164.629 254.404 153.944 254.295C143.258 254.186 132.698 256.61 123.127 261.367C105.88 271.171 105.515 286.815 122.241 297.245C131.713 302.196 142.222 304.833 152.908 304.942C163.594 305.051 174.154 302.628 183.725 297.87C200.972 287.962 201.388 272.005 184.611 261.993ZM181.901 296.515C172.913 300.978 162.999 303.253 152.966 303.153C142.933 303.053 133.066 300.582 124.169 295.941C108.537 286.554 108.798 271.536 124.95 262.462C133.947 257.998 143.87 255.723 153.911 255.823C163.952 255.922 173.828 258.394 182.735 263.035C198.418 272.422 198.054 287.441 181.901 296.515Z" fill="url(#paint4_linear)"/>
<path d="M185.079 261.94C162.153 247.704 116.144 253.492 109.319 276.385C101.034 303.972 149.335 321.337 184.142 303.294C205.192 290.465 200.972 271.849 185.079 261.94ZM183.725 297.61C174.174 302.407 163.625 304.875 152.939 304.811C142.253 304.748 131.734 302.155 122.241 297.245C105.515 287.232 105.88 271.171 123.127 261.627C132.698 256.87 143.258 254.447 153.944 254.556C164.629 254.665 175.138 257.302 184.611 262.253C201.388 272.005 200.972 287.962 183.725 297.61V297.61Z" fill="url(#paint5_linear)"/>
<path d="M181.953 291.143C172.947 295.608 163.016 297.883 152.966 297.783C142.916 297.683 133.032 295.212 124.116 290.57C120.927 289.047 118.186 286.725 116.159 283.828C114.132 280.931 112.888 277.559 112.549 274.039V279.253C112.861 282.775 114.095 286.152 116.126 289.045C118.156 291.938 120.912 294.244 124.116 295.732C133.014 300.374 142.881 302.845 152.914 302.945C162.947 303.044 172.861 300.77 181.849 296.306C190.029 291.717 194.146 285.876 194.198 279.462V274.247C193.819 277.892 192.488 281.372 190.339 284.338C188.189 287.304 185.297 289.651 181.953 291.143V291.143Z" fill="#68686B"/>
<path d="M185.079 250.885C162.466 236.596 116.196 242.385 109.318 265.33C101.086 292.969 149.387 310.282 184.193 292.238C205.244 279.41 201.023 260.741 185.079 250.885ZM183.777 286.815C174.205 291.572 163.645 293.995 152.96 293.887C142.274 293.778 131.765 291.14 122.293 286.189C105.515 276.177 105.932 260.115 123.126 250.52C132.704 245.754 143.274 243.326 153.969 243.435C164.665 243.544 175.183 246.186 184.662 251.146C201.388 260.741 201.023 276.855 183.777 286.815Z" fill="url(#paint6_linear)"/>
<path d="M184.663 250.885C175.179 245.934 164.659 243.3 153.963 243.201C143.268 243.101 132.7 245.538 123.127 250.311C105.932 260.011 105.515 275.968 122.293 285.981C131.765 290.932 142.274 293.569 152.96 293.678C163.646 293.787 174.206 291.364 183.777 286.606C201.024 276.855 201.388 260.741 184.663 250.885ZM181.953 285.459C172.956 289.927 163.029 292.2 152.986 292.091C142.942 291.983 133.067 289.495 124.169 284.833C108.537 275.447 108.798 260.428 124.95 251.354C133.956 246.89 143.888 244.615 153.937 244.715C163.987 244.814 173.871 247.286 182.787 251.928C198.523 261.367 198.158 276.385 181.953 285.459V285.459Z" fill="url(#paint7_linear)"/>
<path d="M124.169 277.063C120.989 275.584 118.25 273.3 116.221 270.438C114.193 267.576 112.945 264.233 112.601 260.741V268.563C112.914 272.085 114.147 275.462 116.178 278.354C118.208 281.247 120.964 283.554 124.169 285.042C133.067 289.704 142.942 292.191 152.986 292.3C163.029 292.409 172.956 290.136 181.953 285.668V277.689C172.953 282.149 163.028 284.417 152.986 284.309C142.944 284.2 133.07 281.717 124.169 277.063V277.063Z" fill="url(#paint8_linear)"/>
<path d="M192.687 278.888C170.386 291.352 134.85 290.987 113.226 278.054C109.413 276.157 106.048 273.469 103.352 270.169C100.657 266.869 98.6947 263.033 97.595 258.916C98.585 265.173 102.076 273.152 114.373 280.714C126.212 286.985 139.376 290.338 152.771 290.492C166.166 290.646 179.404 287.598 191.384 281.6C205.452 273.517 208.631 264.235 209.412 258.864C208.271 263.229 206.18 267.288 203.289 270.749C200.397 274.211 196.777 276.991 192.687 278.888V278.888Z" fill="#68686B"/>
<path d="M193.729 213.808C172.105 200.875 136.413 200.51 114.269 213.025C92.1239 225.541 91.5507 246.139 113.174 259.072C134.798 272.005 170.49 272.37 192.635 259.907C214.779 247.443 215.457 226.792 193.729 213.808Z" fill="url(#paint9_linear)"/>
<path d="M187.424 217.458C177.156 212.096 165.766 209.239 154.184 209.121C142.602 209.003 131.157 211.628 120.782 216.78C102.076 227.21 101.659 244.575 119.844 255.474C130.136 260.85 141.553 263.714 153.162 263.832C164.771 263.949 176.243 261.318 186.643 256.152C205.14 245.67 205.609 228.305 187.424 217.458Z" fill="#262628"/>
<path d="M192.739 259.907C170.438 272.37 134.902 272.005 113.278 259.072C102.857 252.71 97.3343 244.523 97.647 236.283V255.526C97.647 263.713 102.857 271.953 113.539 278.315C135.163 291.248 170.855 291.613 192.999 279.149C204.15 272.526 209.673 264.078 209.673 255.526V236.596C209.725 245.096 204.15 253.544 192.739 259.907Z" fill="url(#paint10_linear)"/>
<path opacity="0.6" d="M176.847 24.9268C96.1362 5.21483 31.3175 89.8513 72.8452 161.659C77.4826 169.377 81.5468 175.844 85.0899 181.841C81.5468 175.844 77.4826 169.429 72.8973 161.659C95.7714 199.623 97.6472 202.7 98.9498 234.667C99.5751 262.305 157.412 276.75 192.114 257.247C197.487 254.371 202.055 250.194 205.4 245.096C207.328 241.953 208.389 238.354 208.475 234.667C209.777 201.97 212.018 199.571 234.788 161.972C242.196 149.524 246.573 135.506 247.564 121.051C248.554 106.596 246.131 92.1101 240.489 78.7665C234.848 65.4229 226.147 53.5958 215.09 44.2424C204.034 34.8891 190.933 28.272 176.847 24.9268V24.9268Z" fill="#CBCBD4"/>
<path style="mix-blend-mode:screen" opacity="0.8" d="M227.031 116.679C240.947 93.9686 229.597 61.6681 201.681 44.5334C173.765 27.3987 139.853 31.9183 125.937 54.6283C112.021 77.3383 123.37 109.639 151.287 126.774C179.203 143.908 213.115 139.389 227.031 116.679Z" fill="url(#paint11_radial)"/>
<path d="M134.225 164.163C134.123 164.163 134.024 164.127 133.947 164.059C133.87 163.992 133.821 163.899 133.808 163.797C133.673 163.532 133.568 163.252 133.495 162.963C133.404 162.639 133.282 162.325 133.131 162.024C132.979 162.12 132.867 162.269 132.818 162.442C132.852 162.311 132.917 162.19 133.008 162.091C133.099 161.991 133.212 161.914 133.339 161.868C133.388 161.845 133.441 161.833 133.495 161.833C133.549 161.833 133.603 161.845 133.652 161.868C133.796 162.189 133.918 162.52 134.016 162.859C134.016 163.12 134.016 163.432 134.277 163.641C134.537 163.85 134.277 163.902 134.277 163.902C134.277 163.902 134.537 162.911 134.694 162.337C134.67 162.06 134.67 161.781 134.694 161.503C134.756 161.027 134.976 160.587 135.319 160.251C135.591 160.626 135.786 161.052 135.892 161.503C135.892 161.972 136.257 162.598 136.413 162.65C136.722 162.026 136.933 161.357 137.039 160.669C137.299 159.417 137.455 158.739 137.768 158.739C137.768 158.739 138.185 159.052 138.445 159.782C138.416 159.92 138.416 160.062 138.445 160.199C138.499 160.543 138.643 160.867 138.862 161.138C139.121 160.762 139.298 160.335 139.383 159.886V159.156C139.495 158.588 139.651 158.03 139.852 157.488C139.909 157.46 139.971 157.446 140.035 157.446C140.098 157.446 140.16 157.46 140.217 157.488C140.325 157.51 140.425 157.56 140.507 157.633C140.59 157.706 140.651 157.8 140.686 157.905C140.686 158.165 140.686 158.426 140.946 158.635C141.019 158.981 141.142 159.315 141.311 159.626V159.626C141.311 159.626 141.572 159.626 141.728 159.104L142.041 157.8C142.121 157.395 142.225 156.994 142.353 156.601C142.374 156.432 142.437 156.272 142.538 156.135C142.638 155.998 142.772 155.889 142.926 155.819C142.967 155.8 143.012 155.79 143.057 155.79C143.102 155.79 143.146 155.8 143.187 155.819L143.812 157.07C143.895 157.373 144.037 157.657 144.229 157.905C144.564 157.195 144.792 156.439 144.906 155.662C144.906 154.724 145.271 154.098 145.584 154.098C146.053 154.098 146.157 154.932 146.313 155.61C146.47 156.288 146.313 156.497 146.626 156.549C146.991 156.549 147.095 155.61 147.199 154.88C147.233 154.111 147.447 153.361 147.824 152.69C147.925 152.654 148.036 152.654 148.137 152.69C148.137 152.69 148.45 153.055 148.606 153.681C148.719 154.187 148.931 154.666 149.231 155.089C149.434 154.613 149.608 154.125 149.752 153.629C150.259 152.77 150.852 151.966 151.524 151.23C151.545 151.133 151.598 151.045 151.673 150.979C151.747 150.913 151.841 150.873 151.941 150.865C152.033 150.87 152.122 150.902 152.196 150.958C152.271 151.014 152.327 151.09 152.357 151.178L152.67 152.012C152.719 152.324 152.825 152.625 152.983 152.899V152.899C152.983 152.899 152.983 152.899 153.243 152.533C153.504 152.168 153.243 151.647 153.66 151.125C154.077 150.604 153.66 150.448 153.66 150.083C153.66 149.717 154.025 149.144 154.285 149.04C154.5 149.395 154.658 149.782 154.754 150.187V150.708C154.754 151.125 155.119 151.334 155.171 151.334C155.453 150.74 155.646 150.107 155.744 149.457C156.005 148.309 156.161 147.579 156.474 147.475H156.734C156.734 147.475 157.099 148.101 157.255 148.727C157.412 149.352 157.62 149.874 157.776 149.874C157.776 149.874 158.245 148.674 158.402 147.997C158.533 147.354 158.725 146.726 158.975 146.119C159.014 146.096 159.059 146.084 159.105 146.084C159.151 146.084 159.196 146.096 159.235 146.119V146.119C159.235 146.119 159.652 146.119 159.808 146.745C159.786 146.953 159.786 147.163 159.808 147.371C159.873 147.744 160.015 148.099 160.225 148.414C160.435 148.219 160.581 147.964 160.642 147.684C160.753 147.325 160.841 146.959 160.903 146.589C160.903 146.119 161.163 145.65 161.267 145.181C161.294 145.04 161.355 144.909 161.446 144.8C161.538 144.69 161.655 144.606 161.788 144.555C161.837 144.532 161.891 144.52 161.945 144.52C161.999 144.52 162.052 144.532 162.101 144.555C162.262 144.869 162.385 145.202 162.466 145.546C162.488 145.806 162.488 146.068 162.466 146.328L162.726 146.589C162.726 146.589 163.195 145.076 163.404 144.398C163.612 143.72 163.768 142.99 163.977 142.886C164.394 142.886 164.55 143.825 164.706 144.451C164.863 145.076 164.706 145.285 165.019 145.337C165.417 144.775 165.619 144.096 165.592 143.408C165.592 142.69 165.83 141.993 166.269 141.426C166.325 141.394 166.388 141.377 166.452 141.377C166.516 141.377 166.579 141.394 166.634 141.426C166.634 141.426 166.947 141.947 167.051 142.469C167.155 142.99 167.364 143.72 167.676 143.877C167.868 143.443 168.008 142.988 168.093 142.521C168.271 141.76 168.497 141.011 168.77 140.279C168.77 140.279 168.77 140.018 169.135 140.018C169.135 140.018 169.5 140.018 169.604 140.435C169.634 140.678 169.634 140.923 169.604 141.165C169.685 141.509 169.808 141.842 169.969 142.156C169.969 142.156 169.969 142.156 170.334 141.687L170.646 140.331L170.959 139.184L172.887 140.279L172.574 141.634C172.574 142 172.209 142.26 172.001 142.26C172.001 142.26 172.001 142.26 171.74 142.26C171.583 141.938 171.444 141.607 171.324 141.269C171.26 141.001 171.173 140.74 171.063 140.487C171.063 140.487 171.063 140.226 171.063 140.226C170.766 140.933 170.54 141.666 170.386 142.417C170.125 143.355 170.021 143.825 169.813 143.929C169.396 143.929 169.239 142.99 169.083 142.365C168.927 141.739 169.083 141.478 168.77 141.478C168.371 142.023 168.152 142.68 168.145 143.355C168.153 144.066 167.934 144.76 167.52 145.337C167.465 145.369 167.402 145.386 167.338 145.386C167.274 145.386 167.211 145.369 167.155 145.337C167.155 145.337 166.843 144.868 166.738 144.294C166.634 143.72 166.426 143.042 166.113 142.886C165.922 143.32 165.782 143.775 165.696 144.242C165.696 144.92 165.279 145.754 165.019 146.432C164.988 146.52 164.932 146.596 164.858 146.652C164.784 146.708 164.695 146.74 164.602 146.745V146.745C164.602 146.745 164.289 146.745 164.185 146.328C164.067 146.078 163.98 145.816 163.925 145.546C163.925 145.233 163.664 144.868 163.56 144.607C163.47 144.655 163.391 144.722 163.328 144.803C163.265 144.884 163.22 144.977 163.195 145.076C163.043 145.537 162.921 146.007 162.831 146.484C162.768 146.855 162.681 147.221 162.57 147.579C162.57 147.997 162.205 148.414 161.997 148.466H161.736C161.549 148.121 161.409 147.753 161.319 147.371C161.297 147.163 161.297 146.953 161.319 146.745C161.319 146.432 161.007 146.276 160.955 146.276C160.955 146.641 160.642 147.371 160.434 148.101C160.225 148.831 159.965 150.135 159.6 150.135C159.235 150.135 159.079 149.509 158.871 148.831C158.662 148.153 158.61 147.788 158.454 147.736C158.454 147.736 157.985 148.779 157.828 149.561C157.731 150.252 157.52 150.921 157.203 151.543C157.203 151.543 156.734 151.125 156.63 150.76C156.609 150.587 156.609 150.412 156.63 150.239C156.551 149.87 156.41 149.518 156.213 149.196C155.967 149.434 155.803 149.745 155.744 150.083C155.72 150.43 155.72 150.778 155.744 151.125C155.744 151.647 155.484 152.116 155.327 152.586C155.171 153.055 155.067 153.055 154.858 153.055C154.858 153.055 154.598 153.055 154.494 152.794L154.181 151.856L152.045 151.23C152.045 151.23 152.045 151.23 152.045 151.49C151.789 152.117 151.58 152.762 151.419 153.42C151.055 154.567 150.898 154.984 150.742 155.037C150.387 154.575 150.138 154.041 150.013 153.472C149.979 153.172 149.872 152.886 149.7 152.638V152.638C149.322 153.251 149.106 153.951 149.075 154.672C149.075 155.506 149.075 156.236 148.397 156.497C148.344 156.535 148.28 156.555 148.215 156.555C148.15 156.555 148.086 156.535 148.033 156.497C147.772 156.497 147.668 155.923 147.616 155.349C147.564 154.776 147.355 154.15 147.043 154.046C147.043 154.046 146.73 154.88 146.574 155.454C146.427 156.24 146.2 157.009 145.896 157.748V157.748C145.896 157.748 145.532 157.435 145.271 156.81C145.094 156.377 144.885 155.959 144.646 155.558V155.558C144.646 155.558 144.385 155.558 144.281 156.184C144.153 156.577 144.049 156.978 143.968 157.383C143.871 157.824 143.749 158.26 143.604 158.687C143.604 159.104 143.291 159.365 143.083 159.365C142.874 159.365 143.083 159.365 142.822 159.365C142.612 159.05 142.47 158.695 142.405 158.322C142.342 158.088 142.254 157.861 142.145 157.644C142.145 157.644 142.145 157.331 141.884 157.331C141.683 157.838 141.526 158.361 141.415 158.896V159.678C141.415 160.095 141.051 160.929 140.79 161.034C140.477 161.034 140.373 160.46 140.217 159.939C140.061 159.417 140.217 159.678 140.217 159.521C139.904 158.531 139.748 158.635 139.748 158.635C139.748 158.635 139.279 159.678 139.175 160.408C139.053 161.133 138.825 161.836 138.497 162.494C138.457 162.513 138.412 162.522 138.367 162.522C138.322 162.522 138.278 162.513 138.237 162.494C137.976 162.494 137.82 161.972 137.56 161.19C137.452 160.806 137.294 160.438 137.091 160.095C136.845 160.415 136.683 160.791 136.622 161.19C136.598 161.468 136.598 161.747 136.622 162.024C136.504 162.557 136.347 163.08 136.153 163.589C136.142 163.682 136.1 163.768 136.034 163.835C135.967 163.901 135.881 163.943 135.788 163.954L134.225 164.163Z" fill="#B29A32"/>
<path opacity="0.6" d="M161.32 193.678C161.374 193.333 161.374 192.981 161.32 192.635L157.724 182.206C157.985 183.04 157.724 183.875 156.474 184.5C155.523 184.99 154.469 185.245 153.4 185.245C152.33 185.245 151.276 184.99 150.325 184.5C149.283 183.875 148.919 183.04 149.179 182.258L145.532 192.688C145.482 193.016 145.482 193.35 145.532 193.678V238.422C145.588 239.124 145.83 239.798 146.233 240.376C146.636 240.953 147.185 241.413 147.824 241.707C149.586 242.596 151.531 243.059 153.504 243.059C155.477 243.059 157.422 242.596 159.183 241.707C159.856 241.426 160.439 240.966 160.871 240.378C161.302 239.79 161.565 239.096 161.632 238.369L161.32 193.678Z" fill="#A3A3AD"/>
<path opacity="0.6" d="M156.422 180.85C155.471 180.36 154.417 180.105 153.348 180.105C152.278 180.105 151.224 180.36 150.273 180.85C148.554 181.841 148.502 183.457 150.273 184.448C151.224 184.938 152.278 185.193 153.348 185.193C154.417 185.193 155.471 184.938 156.422 184.448C158.037 183.405 158.089 181.841 156.422 180.85Z" fill="#C4C4CC"/>
<path d="M151.472 184.031C151.392 184.038 151.312 184.029 151.236 184.003C151.161 183.978 151.091 183.937 151.032 183.883C150.973 183.829 150.927 183.763 150.895 183.69C150.862 183.616 150.846 183.537 150.846 183.457V174.227L134.225 173.497C134.076 173.499 133.931 173.448 133.816 173.352C133.701 173.256 133.625 173.123 133.6 172.976L131.515 161.659C131.501 161.577 131.502 161.493 131.521 161.411C131.539 161.329 131.573 161.252 131.622 161.184C131.671 161.116 131.732 161.059 131.803 161.015C131.875 160.971 131.954 160.942 132.037 160.929C132.115 160.906 132.198 160.9 132.28 160.912C132.361 160.923 132.439 160.953 132.509 160.997C132.578 161.042 132.637 161.1 132.681 161.17C132.725 161.239 132.754 161.317 132.766 161.399L134.746 172.35L151.472 173.132C151.628 173.145 151.774 173.217 151.881 173.333C151.987 173.449 152.045 173.6 152.045 173.758V183.562C152.02 183.695 151.949 183.815 151.844 183.901C151.739 183.987 151.607 184.033 151.472 184.031V184.031Z" fill="#333333"/>
<path d="M154.858 182.102C154.693 182.102 154.534 182.036 154.416 181.918C154.299 181.801 154.233 181.642 154.233 181.476V171.672C154.209 171.614 154.196 171.552 154.196 171.489C154.196 171.427 154.209 171.365 154.233 171.307L171.324 150.448L173.408 136.785C173.414 136.704 173.437 136.626 173.475 136.555C173.513 136.484 173.566 136.422 173.63 136.372C173.694 136.323 173.767 136.288 173.846 136.269C173.924 136.25 174.006 136.248 174.085 136.263C174.166 136.269 174.244 136.292 174.315 136.33C174.386 136.369 174.448 136.422 174.497 136.486C174.546 136.55 174.582 136.623 174.6 136.702C174.619 136.78 174.621 136.862 174.606 136.941L172.887 151.23C172.916 151.332 172.916 151.44 172.887 151.543L155.484 172.089V181.476C155.484 181.642 155.418 181.801 155.301 181.918C155.183 182.036 155.024 182.102 154.858 182.102V182.102Z" fill="#333333"/>
<path style="mix-blend-mode:screen" d="M261.373 260.658C320.953 201.029 320.953 104.351 261.373 44.7218C201.793 -14.9073 105.195 -14.9073 45.6155 44.7218C-13.9643 104.351 -13.9643 201.029 45.6155 260.658C105.195 320.287 201.793 320.287 261.373 260.658Z" fill="url(#paint12_radial)"/>
</g>
<defs>
<linearGradient id="paint0_linear" x1="137.924" y1="274.925" x2="168.861" y2="328.407" gradientUnits="userSpaceOnUse">
<stop stop-color="#7E7E82"/>
<stop offset="0.18" stop-color="#87878B"/>
<stop offset="0.48" stop-color="#9F9FA3"/>
<stop offset="0.85" stop-color="#C5C5CB"/>
<stop offset="1" stop-color="#D7D7DD"/>
</linearGradient>
<linearGradient id="paint1_linear" x1="108.277" y1="304.65" x2="198.47" y2="304.65" gradientUnits="userSpaceOnUse">
<stop stop-color="#7C7C80"/>
<stop offset="0.58" stop-color="#929296"/>
<stop offset="1" stop-color="#BDBDC5"/>
</linearGradient>
<linearGradient id="paint2_linear" x1="2398.12" y1="2818.7" x2="2605.88" y2="3439.4" gradientUnits="userSpaceOnUse">
<stop stop-color="#7E7E82"/>
<stop offset="0.18" stop-color="#87878B"/>
<stop offset="0.48" stop-color="#9F9FA3"/>
<stop offset="0.85" stop-color="#C5C5CB"/>
<stop offset="1" stop-color="#D7D7DD"/>
</linearGradient>
<linearGradient id="paint3_linear" x1="1966.29" y1="3446.99" x2="3525.84" y2="3446.99" gradientUnits="userSpaceOnUse">
<stop stop-color="#7C7C80"/>
<stop offset="0.58" stop-color="#929296"/>
<stop offset="1" stop-color="#BDBDC5"/>
</linearGradient>
<linearGradient id="paint4_linear" x1="2397.83" y1="2709.48" x2="2607.48" y2="3331.83" gradientUnits="userSpaceOnUse">
<stop stop-color="#7E7E82"/>
<stop offset="0.18" stop-color="#87878B"/>
<stop offset="0.48" stop-color="#9F9FA3"/>
<stop offset="0.85" stop-color="#C5C5CB"/>
<stop offset="1" stop-color="#D7D7DD"/>
</linearGradient>
<linearGradient id="paint5_linear" x1="1966.48" y1="3312.82" x2="3525.42" y2="3312.82" gradientUnits="userSpaceOnUse">
<stop stop-color="#7C7C80"/>
<stop offset="0.58" stop-color="#929296"/>
<stop offset="1" stop-color="#BDBDC5"/>
</linearGradient>
<linearGradient id="paint6_linear" x1="1967.22" y1="3183.82" x2="3526.77" y2="3183.82" gradientUnits="userSpaceOnUse">
<stop stop-color="#7C7C80"/>
<stop offset="0.58" stop-color="#929296"/>
<stop offset="1" stop-color="#BDBDC5"/>
</linearGradient>
<linearGradient id="paint7_linear" x1="2398.88" y1="2582.62" x2="2606.75" y2="3203.43" gradientUnits="userSpaceOnUse">
<stop stop-color="#7E7E82"/>
<stop offset="0.18" stop-color="#87878B"/>
<stop offset="0.48" stop-color="#9F9FA3"/>
<stop offset="0.85" stop-color="#C5C5CB"/>
<stop offset="1" stop-color="#D7D7DD"/>
</linearGradient>
<linearGradient id="paint8_linear" x1="112.601" y1="276.333" x2="182.005" y2="276.333" gradientUnits="userSpaceOnUse">
<stop stop-color="#515254"/>
<stop offset="0.53" stop-color="#6F7173"/>
<stop offset="1" stop-color="#8E9194"/>
</linearGradient>
<linearGradient id="paint9_linear" x1="133.599" y1="201.918" x2="173.509" y2="270.986" gradientUnits="userSpaceOnUse">
<stop stop-color="#D6D6DD"/>
<stop offset="1" stop-color="#DFDFE5"/>
</linearGradient>
<linearGradient id="paint10_linear" x1="2170.35" y1="2849.19" x2="4587.03" y2="2849.19" gradientUnits="userSpaceOnUse">
<stop stop-color="#7C7C80"/>
<stop offset="0.58" stop-color="#929296"/>
<stop offset="1" stop-color="#BDBDC5"/>
</linearGradient>
<radialGradient id="paint11_radial" cx="0" cy="0" r="1" gradientUnits="userSpaceOnUse" gradientTransform="translate(199.345 41.7543) scale(126.928 127.033)">
<stop stop-color="#DFDFE5"/>
<stop offset="1" stop-opacity="0"/>
</radialGradient>
<radialGradient id="paint12_radial" cx="0" cy="0" r="1" gradientUnits="userSpaceOnUse" gradientTransform="translate(153.488 152.683) scale(152.564 152.69)">
    <stop stop-color="#FFE888"/>
    <stop offset="1" stop-color ="white" stop-opacity="0"/>
</radialGradient>
<clipPath id="clip0">
<rect width="305.127" height="345.586" fill="white" transform="translate(0.940125)"/>
</clipPath>
</defs>
</svg>
