<svg width="177" height="158" viewBox="0 0 177 158" fill="none" xmlns="http://www.w3.org/2000/svg">
<path d="M84.3605 95.6535L86.9397 97.121L4.89319 144.481L9.25122 139.011L84.3605 95.6535Z" fill="#D4D4D4"/>
<path d="M84.3827 9.51573L86.9397 3.00092V97.121L84.3604 95.6535L84.3827 9.51573Z" fill="#E0E0E0"/>
<path d="M84.3826 9.51573L84.3604 95.6535L9.2511 139.011L9.29557 52.8737L84.3826 9.51573Z" fill="#E6E6E6"/>
<path d="M9.29573 52.8737L4.91547 50.3611L86.9398 3.00092L84.3828 9.51573L9.29573 52.8737Z" fill="#EDEDED"/>
<path d="M4.89315 144.481L0.957581 142.191L0.979815 48.0709L4.91538 50.3611L4.89315 144.481Z" fill="#D4D4D4"/>
<path d="M4.91652 50.3611L0.980957 48.0709L83.0053 0.710712L86.9408 3.0009L4.91652 50.3611Z" fill="#F4F4F4"/>
<path d="M9.25122 139.011L4.89319 144.481L4.91542 50.3611L9.29569 52.8737L9.25122 139.011Z" fill="#E0E0E0"/>
<path d="M74.7996 50.7836C74.7996 42.6679 69.0185 39.3993 61.9701 43.4683L32.0864 60.7448C28.3754 63.1631 25.2875 66.423 23.0737 70.2596C20.8598 74.0961 19.5826 78.4009 19.3459 82.824V99.0332C19.3459 107.149 25.1269 110.395 32.1754 106.326L62.1035 89.0275C65.8153 86.6153 68.9043 83.3598 71.1184 79.5266C73.3325 75.6934 74.6091 71.3911 74.844 66.9705L74.7996 50.7836Z" fill="#E0E0E0"/>
<path d="M74.7995 50.7836C74.7995 45.7808 72.576 42.6234 69.263 41.8897C70.85 43.8662 71.6428 46.3636 71.4865 48.8936V65.0806C71.2575 69.503 69.9859 73.8085 67.7756 77.6457C65.5652 81.4829 62.4788 84.743 58.7681 87.1598L28.9735 104.392C26.8203 105.819 24.2084 106.383 21.6582 105.97C23.8817 108.505 27.8395 108.817 32.2198 106.282L62.1034 89.0275C65.8152 86.6153 68.9041 83.3598 71.1183 79.5266C73.3324 75.6934 74.609 71.3911 74.8439 66.9706L74.7995 50.7836Z" fill="#EDEDED"/>
<path d="M70.219 80.9785C73.0464 76.8366 74.6493 71.9817 74.8438 66.9706V50.7836C74.8438 45.7808 72.6204 42.6234 69.3074 41.8897C70.8944 43.8662 71.6872 46.3636 71.5309 48.8936V65.0806C71.3513 70.1013 69.7473 74.9674 66.906 79.1108L70.219 80.9785Z" fill="#D4D4D4"/>
<g style="mix-blend-mode:multiply" opacity="0.8">
<path d="M34.5544 73.4409L38.2231 71.3286V85.0697L34.5544 87.2932V73.4409ZM52.3423 63.1017L56.011 60.9894V74.7527L52.3423 76.9762V63.1017Z" fill="#DBDBDB"/>
</g>
<path opacity="0.9" d="M36.8446 84.336L34.6212 85.6256V73.5298L36.8446 72.218V84.336ZM54.7437 61.901L52.5202 63.1906V75.3086L54.7437 74.019V61.901Z" fill="#272B25"/>
<path d="M46.8058 38.51C48.3844 37.6206 49.6518 38.3321 49.6518 40.1331C49.6071 41.118 49.3275 42.0779 48.8363 42.9328C48.345 43.7876 47.6564 44.5125 46.828 45.047C45.2716 45.9364 43.9819 45.2249 43.9819 43.4239C44.0372 42.4414 44.3213 41.4855 44.8116 40.6323C45.3019 39.7792 45.9848 39.0524 46.8058 38.51V38.51Z" fill="#E0E0E0"/>
<path d="M46.8058 104.414C48.3844 103.525 49.6518 104.258 49.6518 106.037C49.6071 107.022 49.3275 107.982 48.8363 108.837C48.345 109.692 47.6564 110.417 46.828 110.951C45.2716 111.84 43.9819 111.129 43.9819 109.328C44.0372 108.345 44.3213 107.39 44.8116 106.536C45.3019 105.683 45.9848 104.956 46.8058 104.414V104.414Z" fill="#E0E0E0"/>
<path d="M70.8195 85.6478C70.0696 85.1622 69.4451 84.5062 68.9969 83.7334C68.5486 82.9606 68.2894 82.0929 68.2402 81.2008C68.2074 80.884 68.2602 80.5642 68.3932 80.2748C68.5261 79.9853 68.7344 79.7369 68.9962 79.5555L67.5065 80.4226C67.2497 80.6088 67.0452 80.858 66.9128 81.1462C66.7804 81.4344 66.7245 81.7519 66.7505 82.068C66.8031 82.9592 67.0639 83.8257 67.5118 84.5979C67.9597 85.3702 68.5823 86.0267 69.3297 86.515C69.5912 86.7114 69.9019 86.832 70.2275 86.8634C70.553 86.8947 70.881 86.8357 71.1752 86.6928L72.6649 85.8479C72.3671 85.9806 72.0394 86.0319 71.7152 85.9968C71.391 85.9616 71.082 85.8412 70.8195 85.6478V85.6478Z" fill="#B6B6BC"/>
<path d="M106.884 99.9226L106.84 110.44L108.33 109.572L108.352 99.0554L106.884 99.9226Z" fill="url(#paint0_linear)"/>
<path d="M66.4837 74.8862C66.3636 74.8112 66.225 74.7715 66.0834 74.7715C65.9419 74.7715 65.8033 74.8112 65.6832 74.8862L64.1935 75.7533C64.3135 75.6784 64.4522 75.6387 64.5937 75.6387C64.7352 75.6387 64.8739 75.6784 64.9939 75.7533L106.884 99.9226L108.352 99.0554L66.4837 74.8862Z" fill="url(#paint1_linear)"/>
<path d="M64.994 75.7533C62.4815 74.2858 62.437 84.8029 64.994 86.2482L106.84 110.44V99.9226L64.994 75.7533ZM69.3298 86.515C68.5824 86.0267 67.9598 85.3702 67.5119 84.5979C67.064 83.8257 66.8032 82.9592 66.7506 82.068C66.7506 80.4449 67.929 79.8445 69.352 80.6005C70.1007 81.0874 70.7242 81.7437 71.1723 82.5162C71.6204 83.2888 71.8804 84.1559 71.9313 85.0475C71.9313 86.6929 70.7528 87.4266 69.3298 86.515Z" fill="#99999E"/>
<path d="M52.7425 96.0982C51.9951 95.61 51.3725 94.9534 50.9246 94.1811C50.4767 93.4089 50.2159 92.5424 50.1633 91.6512C50.1287 91.3311 50.1806 91.0075 50.3135 90.7142C50.4465 90.4209 50.6556 90.1686 50.9192 89.9836L49.4295 90.8508C49.1693 91.0389 48.9627 91.2917 48.8301 91.5842C48.6975 91.8767 48.6436 92.1987 48.6735 92.5184C48.7262 93.4096 48.9869 94.276 49.4348 95.0483C49.8827 95.8205 50.5054 96.4771 51.2528 96.9653C51.5192 97.1511 51.8289 97.265 52.1522 97.2961C52.4754 97.3273 52.8013 97.2746 53.0983 97.1432L54.588 96.2761C54.291 96.4075 53.9652 96.4601 53.6419 96.429C53.3187 96.3978 53.0089 96.2839 52.7425 96.0982Z" fill="#B6B6BC"/>
<path d="M88.8074 110.351L88.7629 120.868L90.2527 120.001L90.2749 109.506L88.8074 110.351Z" fill="url(#paint2_linear)"/>
<path d="M48.4067 85.3143C48.302 85.2303 48.1767 85.1757 48.0438 85.1562C47.9109 85.1366 47.7753 85.1528 47.6507 85.2031L46.161 86.0703C46.2811 85.9954 46.4197 85.9556 46.5612 85.9556C46.7027 85.9556 46.8414 85.9954 46.9615 86.0703L88.8074 110.351L90.2749 109.506L48.4067 85.3143Z" fill="url(#paint3_linear)"/>
<path d="M46.917 86.1814C44.4045 84.7362 44.36 95.231 46.917 96.6985L88.763 120.779V110.262L46.917 86.1814ZM51.2528 96.9653C50.5054 96.4771 49.8828 95.8205 49.4349 95.0483C48.987 94.276 48.7263 93.4096 48.6736 92.5184C48.6736 90.873 49.852 90.2949 51.2751 91.0286C52.0225 91.5169 52.6451 92.1734 53.093 92.9457C53.5409 93.718 53.8017 94.5844 53.8543 95.4756C53.8543 97.121 52.6759 97.788 51.2528 96.9653Z" fill="#99999E"/>
<path d="M87.0954 102.168L79.669 97.8547C76.9869 99.5988 74.7551 101.952 73.1554 104.723C71.5556 107.493 70.6334 110.602 70.4638 113.797V131.585C70.3514 132.724 70.5409 133.872 71.0132 134.914C71.4855 135.956 72.2239 136.856 73.1542 137.522L80.6028 141.835C79.6692 141.172 78.9282 140.273 78.4555 139.23C77.9828 138.187 77.7954 137.038 77.9124 135.899V118.111C78.0813 114.918 79.0009 111.811 80.5965 109.041C82.1922 106.271 84.4187 103.916 87.0954 102.168V102.168Z" fill="#292C2D"/>
<path d="M118.802 83.9357C123.894 80.9785 128.052 83.3576 128.074 89.2276V106.904C127.897 110.108 126.965 113.224 125.353 115.999C123.742 118.773 121.497 121.128 118.802 122.869L87.2065 141.102C82.1148 144.037 77.9568 141.68 77.9568 135.81V118.022C78.1282 114.827 79.0512 111.719 80.6508 108.948C82.2504 106.178 84.4813 103.825 87.1621 102.079L118.802 83.9357Z" fill="#343638"/>
<path d="M117.824 78.9774C116.758 78.4705 115.574 78.2627 114.399 78.3763C113.224 78.4899 112.103 78.9205 111.153 79.6222L79.5799 97.8547C77.1403 99.3557 75.0906 101.413 73.5988 103.858L81.0252 108.172C82.5294 105.736 84.5765 103.682 87.0064 102.168L118.802 83.9357C119.737 83.2504 120.84 82.829 121.994 82.7156C123.147 82.6021 124.311 82.8008 125.361 83.2909L117.824 78.9774Z" fill="#55595C"/>
<path opacity="0.7" d="M87.2065 141.102L103.438 131.741L87.0064 112.73L77.9124 123.202V135.81C77.9568 141.68 82.1147 144.036 87.2065 141.102Z" fill="#292C2D"/>
<path d="M142.06 119.645L142.015 135.587L130.164 142.48L130.209 126.538L142.06 119.645Z" fill="#343638"/>
<path opacity="0.7" d="M136.368 127.605L130.164 134.742V142.48L137.524 138.189L136.368 127.605Z" fill="#292C2D"/>
<path d="M130.209 126.538L130.164 142.48L86.9174 128.672L86.9841 112.73L130.209 126.538Z" fill="#292C2D"/>
<path d="M118.113 94.6529L142.06 119.645L130.209 126.538L86.9842 112.73L118.113 94.6529Z" fill="#55595C"/>
<path d="M167.897 154.131C167.897 156.799 169.787 157.889 172.099 156.555C173.317 155.76 174.329 154.69 175.056 153.43C175.782 152.171 176.201 150.758 176.279 149.306C176.279 146.638 174.412 145.548 172.099 146.883C170.879 147.676 169.863 148.746 169.133 150.005C168.402 151.264 167.979 152.678 167.897 154.131Z" fill="#292C2D"/>
<path d="M175.079 146.638L140.37 126.627C139.894 126.401 139.365 126.308 138.84 126.359C138.316 126.41 137.815 126.602 137.391 126.916C136.176 127.705 135.163 128.768 134.434 130.019C133.704 131.27 133.277 132.674 133.188 134.12C133.132 134.635 133.21 135.157 133.417 135.633C133.624 136.108 133.951 136.522 134.367 136.832L169.075 156.844C168.66 156.533 168.332 156.12 168.126 155.644C167.919 155.168 167.84 154.647 167.897 154.131C167.993 152.68 168.43 151.271 169.172 150.02C169.913 148.768 170.939 147.709 172.166 146.927C172.585 146.63 173.073 146.448 173.584 146.397C174.095 146.346 174.61 146.429 175.079 146.638Z" fill="url(#paint4_linear)"/>
<defs>
<linearGradient id="paint0_linear" x1="106.84" y1="104.748" x2="108.352" y2="104.748" gradientUnits="userSpaceOnUse">
<stop stop-color="#D6D6DD"/>
<stop offset="1" stop-color="#DFDFE5"/>
</linearGradient>
<linearGradient id="paint1_linear" x1="1320.06" y1="1054.66" x2="2197.04" y2="1054.66" gradientUnits="userSpaceOnUse">
<stop stop-color="#D6D6DD"/>
<stop offset="1" stop-color="#DFDFE5"/>
</linearGradient>
<linearGradient id="paint2_linear" x1="148.47" y1="694.422" x2="149.498" y2="694.422" gradientUnits="userSpaceOnUse">
<stop stop-color="#D6D6DD"/>
<stop offset="1" stop-color="#DFDFE5"/>
</linearGradient>
<linearGradient id="paint3_linear" x1="942.115" y1="1185.24" x2="1818.22" y2="1185.24" gradientUnits="userSpaceOnUse">
<stop stop-color="#D6D6DD"/>
<stop offset="1" stop-color="#DFDFE5"/>
</linearGradient>
<linearGradient id="paint4_linear" x1="156.223" y1="135.765" x2="150.309" y2="146.015" gradientUnits="userSpaceOnUse">
<stop stop-color="#55595C"/>
<stop offset="1" stop-color="#292C2D"/>
</linearGradient>
</defs>
</svg>
