<svg width="145" height="144" viewBox="0 0 145 144" fill="none" xmlns="http://www.w3.org/2000/svg">

    <path d="M71.0759 52V71.8481H73.9114V52H71.0759Z" fill="#606060"/>
    <path d="M58.3164 74.1505C58.3158 71.6183 58.9934 69.1322 60.2789 66.9506C61.5644 64.7691 63.4108 62.9717 65.6262 61.7454L64.251 59.2672C60.9634 61.0878 58.3711 63.9456 56.8788 67.3947C55.3865 70.8437 55.0782 74.6898 56.0021 78.3325C56.9259 81.9752 59.0299 85.2095 61.9855 87.5305C64.9412 89.8515 68.5821 91.1286 72.34 91.1623C76.0979 91.196 79.7612 89.9845 82.758 87.7169C85.7548 85.4493 87.9165 82.2533 88.9055 78.6277C89.8946 75.0022 89.6554 71.1512 88.2252 67.6759C86.795 64.2007 84.2544 61.2967 81 59.4175L79.5794 61.8701C81.735 63.114 83.5252 64.9034 84.77 67.0584C86.0148 69.2135 86.6704 71.6582 86.6709 74.1469C86.6713 76.6357 86.0167 79.0807 84.7727 81.2362C83.5287 83.3917 81.7392 85.1817 79.5841 86.4264C77.4289 87.6711 74.9841 88.3265 72.4954 88.3268C70.0067 88.3271 67.5617 87.6723 65.4063 86.4282C63.2509 85.184 61.4609 83.3944 60.2164 81.2392C58.9719 79.084 58.3166 76.6392 58.3164 74.1505Z" fill="#606060"/>

</svg>
