<svg width="32" height="40" viewBox="0 0 32 40" fill="none" xmlns="http://www.w3.org/2000/svg">
    <path d="M28 16H10V10C10 6.692 12.692 4 16 4C19.308 4 22 6.692 22 10H26C26 4.486 21.514 0 16 0C10.486 0 6 4.486 6 10V16H4C2.93913 16 1.92172 16.4214 1.17157 17.1716C0.421427 17.9217 0 18.9391 0 20V36C0 37.0609 0.421427 38.0783 1.17157 38.8284C1.92172 39.5786 2.93913 40 4 40H28C29.0609 40 30.0783 39.5786 30.8284 38.8284C31.5786 38.0783 32 37.0609 32 36V20C32 18.9391 31.5786 17.9217 30.8284 17.1716C30.0783 16.4214 29.0609 16 28 16ZM12.122 26.998C12.3678 26.0569 12.9479 25.2374 13.7538 24.6927C14.5596 24.148 15.5363 23.9152 16.5012 24.038C17.4662 24.1607 18.3534 24.6305 18.9973 25.3596C19.6412 26.0887 19.9976 27.0273 20 28C19.9989 28.6995 19.8134 29.3863 19.4623 29.9913C19.1111 30.5963 18.6068 31.098 18 31.446V36H14V31.446C13.2432 31.0124 12.6497 30.3424 12.3104 29.5389C11.9712 28.7354 11.905 27.8428 12.122 26.998Z" fill="white"/>
</svg>
